<?xml version="1.0" standalone="no"?>
<!DOCTYPE svg PUBLIC "-//W3C//DTD SVG 1.1//EN" "http://www.w3.org/Graphics/SVG/1.1/DTD/svg11.dtd" >
<svg xmlns="http://www.w3.org/2000/svg">
<metadata>
Created by FontForge 20120731 at Mon Mar  7 17:12:45 2016
 By Ads
</metadata>
<defs>
<font id="iconfont" horiz-adv-x="1024" >
  <font-face 
    font-family="iconfont"
    font-weight="500"
    font-stretch="normal"
    units-per-em="1024"
    panose-1="2 0 6 3 0 0 0 0 0 0"
    ascent="896"
    descent="-128"
    x-height="792"
    bbox="-1.12766 -128 1057 896"
    underline-thickness="50"
    underline-position="-100"
    unicode-range="U+0078-E689"
  />
<missing-glyph horiz-adv-x="374" 
d="M34 0v682h272v-682h-272zM68 34h204v614h-204v-614z" />
    <glyph glyph-name=".notdef" horiz-adv-x="374" 
d="M34 0v682h272v-682h-272zM68 34h204v614h-204v-614z" />
    <glyph glyph-name=".null" horiz-adv-x="0" 
 />
    <glyph glyph-name="nonmarkingreturn" horiz-adv-x="341" 
 />
    <glyph glyph-name="x" unicode="x" horiz-adv-x="1001" 
d="M281 543q-27 -1 -53 -1h-83q-18 0 -36.5 -6t-32.5 -18.5t-23 -32t-9 -45.5v-76h912v41q0 16 -0.5 30t-0.5 18q0 13 -5 29t-17 29.5t-31.5 22.5t-49.5 9h-133v-97h-438v97zM955 310v-52q0 -23 0.5 -52t0.5 -58t-10.5 -47.5t-26 -30t-33 -16t-31.5 -4.5q-14 -1 -29.5 -0.5
t-29.5 0.5h-32l-45 128h-439l-44 -128h-29h-34q-20 0 -45 1q-25 0 -41 9.5t-25.5 23t-13.5 29.5t-4 30v167h911zM163 247q-12 0 -21 -8.5t-9 -21.5t9 -21.5t21 -8.5q13 0 22 8.5t9 21.5t-9 21.5t-22 8.5zM316 123q-8 -26 -14 -48q-5 -19 -10.5 -37t-7.5 -25t-3 -15t1 -14.5
t9.5 -10.5t21.5 -4h37h67h81h80h64h36q23 0 34 12t2 38q-5 13 -9.5 30.5t-9.5 34.5q-5 19 -11 39h-368zM336 498v228q0 11 2.5 23t10 21.5t20.5 15.5t34 6h188q31 0 51.5 -14.5t20.5 -52.5v-227h-327z" />
    <glyph glyph-name="uniE600" unicode="&#xe600;" 
d="M394.5 -128q-40.5 0 -69 28.5t-28.5 69t28.5 69t69 28.5t69 -28.5t28.5 -69t-28.5 -69t-69 -28.5zM394.5 3q-13.5 0 -23.5 -10t-10 -23.5t10 -23.5t23.5 -10t23.5 10t10 23.5t-10 23.5t-23.5 10zM775.5 -128q-40.5 0 -69 28.5t-28.5 69t28.5 69t69 28.5t69 -28.5
t28.5 -69t-28.5 -69t-69 -28.5zM775.5 3q-13.5 0 -23.5 -10t-10 -23.5t10 -23.5t23.5 -10t23.5 10t10 23.5t-10 23.5t-23.5 10zM837 122h-4h-431q-61 0 -103 45q-35 36 -57 104q-13 38 -23 91t-15 91t-14 109q-5 40 -7 59q-14 111 -68 149q-16 11 -35.5 15t-27.5 3.5
t-12 -1.5q-13 -3 -24 4t-14 19.5t4 24t20 14.5q8 2 21 3.5t45 -5t59 -25.5q60 -41 84 -132h1l686 -1q46 0 73 -28q28 -30 25 -73v-1v-2q-19 -133 -56 -293q-26 -108 -74 -148q-25 -22 -53 -22zM247 626q2 -19 7 -56q24 -205 48 -279q18 -54 43 -80q24 -25 57 -25h435h1
q8 2 18 14q28 30 46 107q35 149 55 285q-1 16 -9 25q-8 8 -26 8z" />
    <glyph glyph-name="uniE601" unicode="&#xe601;" 
d="M394.5 -128q-40.5 0 -69 28.5t-28.5 69t28.5 69t69 28.5t69 -28.5t28.5 -69t-28.5 -69t-69 -28.5zM775.5 -128q-40.5 0 -69 28.5t-28.5 69t28.5 69t69 28.5t69 -28.5t28.5 -69t-28.5 -69t-69 -28.5zM837 122h-4h-431q-61 0 -103 45q-35 36 -57 104q-13 38 -23 91t-15 91
t-14 109q-5 40 -7 59q-14 111 -68 149q-16 11 -35.5 15t-27.5 3.5t-12 -1.5q-13 -3 -24 4t-14 19.5t4 24t20 14.5q8 2 21 3.5t45 -5t59 -25.5q60 -41 84 -132h1l686 -1q46 0 73 -28q28 -30 25 -73v-1v-2q-18 -132 -56 -293q-26 -108 -74 -148q-25 -22 -53 -22z" />
    <glyph glyph-name="uniE602" unicode="&#xe602;" 
d="M512 -127q-104 0 -199 40q-91 39 -161.5 109.5t-109.5 161.5q-40 95 -40 199t40 199q39 91 109.5 161.5t161.5 109.5q95 40 199 40t199 -40q91 -39 161.5 -109.5t109.5 -161.5q40 -95 40 -199t-40 -199q-39 -91 -109.5 -161.5t-161.5 -109.5q-95 -40 -199 -40zM512 829
q-91 0 -173.5 -35.5t-142 -95t-95 -142t-35.5 -173.5t35.5 -173.5t95 -142t142 -95t173.5 -35.5t173.5 35.5t142 95t95 142t35.5 173.5t-35.5 173.5t-95 142t-142 95t-173.5 35.5zM260 105q-13 0 -22.5 9.5t-9.5 22.5t10 23l500 493q9 9 22 9t22.5 -9.5t9.5 -22.5t-10 -23
l-500 -493q-9 -9 -22 -9zM767 97q-13 0 -23 9l-505 506q-9 10 -9 23t9.5 22.5t22.5 9.5t23 -9l505 -506q9 -10 9 -23t-9.5 -22.5t-22.5 -9.5z" />
    <glyph glyph-name="uniE603" unicode="&#xe603;" 
d="M512 -127q-104 0 -199 40q-91 39 -161.5 109.5t-109.5 161.5q-40 95 -40 199t40 199q39 91 109.5 161.5t161.5 109.5q95 40 199 40t199 -40q91 -39 161.5 -109.5t109.5 -161.5q40 -95 40 -199t-40 -199q-39 -91 -109.5 -161.5t-161.5 -109.5q-95 -40 -199 -40zM512 829
q-91 0 -173.5 -35.5t-142 -95t-95 -142t-35.5 -173.5t35.5 -173.5t95 -142t142 -95t173.5 -35.5t173.5 35.5t142 95t95 142t35.5 173.5t-35.5 173.5t-95 142t-142 95t-173.5 35.5zM330 455q14 0 24 -10t10 -24t-10 -24t-24 -10t-24 10t-10 24t10 24t24 10zM330 509
q-36 0 -62 -26t-26 -62t26 -62t62 -26t62 26t26 62t-26 62t-62 26zM673 455q14 0 24 -10t10 -24t-10 -24t-24 -10t-24 10t-10 24t10 24t24 10zM673 509q-36 0 -62 -26t-26 -62t26 -62t62 -26t62 26t26 62t-26 62t-62 26zM286 136q2 4 6.5 10.5t21.5 24t38.5 30.5t59.5 23.5
t82 10.5t85 -10.5t67.5 -25t46.5 -29t29 -24.5l9 -11z" />
    <glyph glyph-name="uniE604" unicode="&#xe604;" 
d="M673 822q0 -22 -15.5 -37.5t-37.5 -15.5h-211q-22 0 -37.5 15.5t-15.5 37.5v21q0 22 15.5 37.5t37.5 15.5h211q22 0 37.5 -15.5t15.5 -37.5v-21zM909 -125h-788q-34 0 -58.5 24.5t-24.5 58.5v813q0 34 24.5 58.5t58.5 24.5h138q13 0 22.5 -9.5t9.5 -22.5t-9.5 -22.5
t-22.5 -9.5h-138q-8 0 -13.5 -5.5t-5.5 -13.5v-813q0 -8 5.5 -13.5t13.5 -5.5h788q8 0 13.5 5.5t5.5 13.5v813q0 8 -5.5 13.5t-13.5 5.5h-141q-13 0 -22.5 9.5t-9.5 22.5t9.5 22.5t22.5 9.5h141q34 0 58.5 -24.5t24.5 -58.5v-813q0 -34 -24.5 -58.5t-58.5 -24.5zM764 545
h-501q-13 0 -22.5 9.5t-9.5 22.5t9.5 22.5t22.5 9.5h501q13 0 22.5 -9.5t9.5 -22.5t-9.5 -22.5t-22.5 -9.5zM764 352h-501q-13 0 -22.5 9.5t-9.5 22.5t9.5 22.5t22.5 9.5h501q13 0 22.5 -9.5t9.5 -22.5t-9.5 -22.5t-22.5 -9.5zM764 159h-501q-13 0 -22.5 9.5t-9.5 22.5
t9.5 22.5t22.5 9.5h501q13 0 22.5 -9.5t9.5 -22.5t-9.5 -22.5t-22.5 -9.5z" />
    <glyph glyph-name="uniE605" unicode="&#xe605;" 
d="M385 740q-11 0 -19 8t-8 19v66q0 21 16 37q22 23 67 23h152h1q15 -1 30 -7q40 -16 40 -52v-66q0 -11 -8 -19t-19 -8t-19 8t-8 19v64q-6 5 -20 7h-149q-25 0 -29 -7v-65q0 -11 -8 -19t-19 -8zM990 633h-955q-13 0 -22.5 9.5t-9.5 22.5t9.5 22.5t22.5 9.5h955
q13 0 22.5 -9.5t9.5 -22.5t-9.5 -22.5t-22.5 -9.5zM790 -128h-560h-2q-19 3 -37 14q-40 24 -40 72v692q0 13 9.5 22.5t22.5 9.5t22.5 -9.5t9.5 -22.5v-692q0 -12 8 -17q5 -3 12 -5h555q12 0 19 7l2 2v716q0 13 9.5 22.5t22.5 9.5t22.5 -9.5t9.5 -22.5v-728l-2 -5
q-5 -15 -17 -29q-26 -27 -66 -27zM384 55q-11 0 -19 8t-8 19v400q0 11 8 19t19 8t19 -8t8 -19v-400q0 -11 -8 -19t-19 -8zM639 55q-11 0 -19 8t-8 19v400q0 11 8 19t19 8t19 -8t8 -19v-400q0 -11 -8 -19t-19 -8z" />
    <glyph glyph-name="uniE606" unicode="&#xe606;" horiz-adv-x="1025" 
d="M512 -128q-139 0 -257 68.5t-186.5 186.5t-68.5 257t68.5 257t186.5 186.5t257 68.5q104 0 199 -40.5t163.5 -109t109 -163.5t40.5 -199t-40.5 -199t-109 -163.5t-163.5 -109t-199 -40.5zM723 535q13 12 13 30t-12.5 30.5t-30.5 12.5t-30 -13l-151 -151l-151 151
q-12 13 -30 13t-30.5 -12.5t-12.5 -30.5t13 -30l151 -151l-151 -151q-13 -12 -13 -30t12.5 -30.5t30.5 -12.5t30 13l151 151l151 -151q12 -13 30 -13t30.5 12.5t12.5 30.5t-13 30l-151 151z" />
    <glyph glyph-name="uniE607" unicode="&#xe607;" 
d="M888 482v322h-831q-2 -1 -6 -1.5t-13 -4t-16 -9t-13 -16.5t-6 -26v-720q1 0 0 -5.5t2 -14.5t8 -17t17 -14t29 -6h830v320l135 94zM384 649h327v-29h-158l-21 -83h150v-277h-31v249h-224v-252h-31v280h105l21 83h-138v29zM230 161q-9 -1 -40 -1q-3 17 -8 34q20 -2 46 -2
q36 -2 35 35v378h-91v29h193v-29h-72v-384q4 -60 -63 -60zM693 145q-81 70 -157 134q-27 -84 -178 -143q-6 9 -21 26q120 46 152 96q37 48 36 167v37h30v-35q0 -76 -11 -120q92 -72 172 -137z" />
    <glyph glyph-name="uniE608" unicode="&#xe608;" 
d="M1024 384l-136 98v322h-831q-2 -1 -6 -1.5t-13 -4t-16 -9t-13 -16.5t-6 -26v-720q1 0 0 -5.5t2 -14.5t8 -17t17 -14t29 -6h830v320z" />
    <glyph glyph-name="uniE609" unicode="&#xe609;" 
d="M193 575l322 -320l319 320h-641z" />
    <glyph glyph-name="uniE60A" unicode="&#xe60a;" 
d="M834 255l-322 320l-319 -320h641z" />
    <glyph glyph-name="uniE60B" unicode="&#xe60b;" 
d="M301 -127h-300v298l10 10q641 619 676 653q55 54 111 54q48 0 79 -34q75 -73 111 -113q33 -38 23 -93q-5 -25 -16 -45l-2 -3l-3 -3zM65 -63h208l668 700q18 40 -1 61q-35 40 -108 111l-2 1l-1 1q-12 13 -31 13q-30 0 -67 -36q-78 -75 -666 -644v-207zM149 238l231 -232
l-45 -45l-232 232z" />
    <glyph glyph-name="uniE60C" unicode="&#xe60c;" 
d="M512.5 -126q-103.5 0 -197.5 40q-92 39 -162.5 109.5t-108.5 161.5q-40 95 -40 198.5t40 197.5q38 92 108.5 162.5t162.5 108.5q94 40 197.5 40t198.5 -40q91 -38 161.5 -108.5t109.5 -162.5q40 -94 40 -197.5t-40 -198.5q-39 -91 -109.5 -161.5t-161.5 -109.5
q-95 -40 -198.5 -40zM513 828q-90 0 -172.5 -35t-142.5 -95t-95 -142.5t-35 -172.5t35 -172.5t95 -142t142.5 -95t172.5 -35.5t172.5 35.5t142 95t95 142t35.5 172.5t-35.5 172.5t-95 142.5t-142 95t-172.5 35zM510 225q-13 0 -22.5 9.5t-9.5 22.5v433q0 13 9.5 22.5
t22.5 9.5t22.5 -9.5t9.5 -22.5v-433q0 -13 -9.5 -22.5t-22.5 -9.5zM510 98zM479 98.5q0 13.5 9 22.5t22.5 9t22.5 -9t9 -22.5t-9 -22.5t-22.5 -9t-22.5 9t-9 22.5z" />
    <glyph glyph-name="uniE60D" unicode="&#xe60d;" 
d="M989 -88zM989 -110h-954q-13 0 -22.5 9.5t-9.5 22.5t9.5 22.5t22.5 9.5h954q13 0 22.5 -9.5t9.5 -22.5t-9.5 -22.5t-22.5 -9.5zM19 -52l73 212l205 -213zM150 231l202 -209l444 443l-204 205zM659 748l202 -202l58 60q2 4 5.5 10t8 21t1.5 26q-2 9 -24 32.5t-46.5 46
t-49.5 46t-27 25.5q-25 25 -71 -13z" />
    <glyph glyph-name="uniE60E" unicode="&#xe60e;" horiz-adv-x="1025" 
d="M830 279q-11 2 -29.5 -8t-31.5 -21l-13 -10q39 -25 67.5 -54t41.5 -53t20.5 -44.5t7.5 -31.5l1 -12q32 16 48 43q10 15 12.5 29.5t-4 37t-26.5 48.5q-47 67 -94 76zM313 731q-12 -1 -27 -16t-24 -29l-9 -14q44 -12 80 -32t55 -37.5t33 -37.5t17 -27t4 -11q27 34 35 65
q6 25 -3.5 45t-48.5 50q-65 49 -112 44zM514 891q-104 0 -198.5 -40.5t-163 -108t-109 -161.5t-40.5 -197t40.5 -197t109 -162t163 -108.5t198.5 -40.5q186 0 331 123q35 7 29 35q-7 34 -45 93.5t-89 89.5q-4 2 -9.5 4t-20 -1t-25.5 -17q-2 0 -5 -0.5t-15 1.5t-25 8
t-35.5 21.5t-46.5 39.5q-7 7 -28.5 27t-28.5 27t-24 24.5t-22.5 26t-17 24t-14.5 26.5l-7 24q-4 14 -2.5 27.5t6.5 27.5q0 1 0.5 3t-0.5 8t-3.5 12t-9 16t-16.5 20t-27 22.5t-39 25.5q-31 17 -53.5 25t-34 8.5t-19.5 -6t-9.5 -9.5t-4.5 -12l-5 -14q-5 -13 -8 -23.5t-6 -27
t-1.5 -34t7.5 -33.5q13 -32 34 -70t78.5 -111t135.5 -148q106 -100 177.5 -144.5t124.5 -45.5q-106 -58 -227 -58q-97 0 -185 37.5t-151.5 101t-101.5 151t-38 183t38 183t101.5 151t151.5 101t184.5 37.5t185 -37.5t152 -101t101 -151t37.5 -182.5v-5v-4h35q0 1 0.5 4
t0.5 5q0 103 -40.5 197t-109 161.5t-163.5 108t-198 40.5z" />
    <glyph glyph-name="uniE60F" unicode="&#xe60f;" 
d="M864 304q35 63 35 133t-35 133q-34 60 -96 107q-130 97 -312.5 97t-311.5 -97q-62 -47 -96 -107q-36 -63 -36 -133q0 -82 49.5 -154.5t136.5 -120.5q-3 -34 -41 -97q-5 -9 -7 -13q-1 -1 -2 -3q-3 -7 -3 -15q0 -17 12 -29t30 -12q1 0 5 1q2 -1 4 0q53 8 103.5 42.5
t80.5 68.5q38 -5 76 -5q182 0 312 97q62 46 96 107zM376 140q-10 1 -16 -6q-21 -26 -69 -61.5t-99 -44.5q-1 0 -3 -1h-2q-8 0 -8 7q0 2 1 3q2 3 6 10q46 76 47 122v3q0 11 -9 15q-84 43 -131 109t-47 141q0 82 55 152t149.5 110.5t205.5 40.5t205.5 -40.5t149.5 -110.5
t55 -152t-55 -152t-149.5 -110.5t-205.5 -40.5q-40 0 -80 6zM946 514q-4 6 -11 7.5t-13 -2.5t-7 -11t3 -13q80 -116 45 -230q-17 -58 -62.5 -101.5t-112.5 -67.5q-142 -51 -305 -1q-7 2 -13.5 -1.5t-8.5 -10t1.5 -13t10.5 -8.5q83 -25 166 -25q86 0 160 27q73 26 124 74
q52 50 73 117q19 62 6 129.5t-56 129.5zM453 667q-112 0 -194 -52t-82 -124q0 -5 4 -8.5t9 -3.5t9 3.5t4 8.5q0 61 75 106t175 45q6 0 9.5 3.5t3.5 9t-3.5 9t-9.5 3.5z" />
    <glyph glyph-name="uniE610" unicode="&#xe610;" 
d="M806 -77h-5h-598q-48 0 -75 31q-29 33 -24 85v359h64v-364v-1q-3 -24 8 -37q8 -9 27 -9h601q22 -1 35 12q13 12 13 39v361h64v-361q0 -56 -33 -87q-31 -28 -77 -28zM136 368h-98q-22 0 -30 21t9 35l472 419q9 8 21 8t21 -7l479 -416q16 -15 9 -35.5t-29 -20.5l-105 -3h-1
q-13 0 -22.5 9t-9.5 22t9 22.5t22 10.5h23l-396 344l-388 -345h14q14 0 23 -9t9 -22.5t-9 -23t-23 -9.5zM403 -45q-11 0 -19 8t-8 19v226q0 23 20 44q34 35 115 35q79 0 114 -36q20 -21 20 -46v-222q0 -12 -8 -19.5t-19 -7.5t-19 7.5t-8 19.5v222q-1 5 -8 11q-20 17 -72 17
q-58 0 -76 -19q-4 -4 -5 -7v-225q0 -11 -8 -19t-19 -8z" />
    <glyph glyph-name="uniE611" unicode="&#xe611;" 
d="M806 -77h-5h-598q-48 0 -75 31q-29 33 -24 85v359h64v-364v-1q-3 -24 8 -37q8 -9 27 -9h601q22 -1 35 12q13 12 13 39v361h64v-361q0 -56 -33 -87q-31 -28 -77 -28zM136 368h-98q-22 0 -30 21t9 35l472 419q9 8 21 8t21 -7l479 -416q16 -15 9 -35.5t-29 -20.5l-105 -3h-1
q-13 0 -22.5 9t-9.5 22t9 22.5t22 10.5h23l-396 344l-388 -345h14q14 0 23 -9t9 -22.5t-9 -23t-23 -9.5zM403 -45q-11 0 -19 8t-8 19v226q0 23 20 44q34 35 115 35q79 0 114 -36q20 -21 20 -46v-222q0 -12 -8 -19.5t-19 -7.5t-19 7.5t-8 19.5v222q-1 5 -8 11q-20 17 -72 17
q-58 0 -76 -19q-4 -4 -5 -7v-225q0 -11 -8 -19t-19 -8zM410 170l-9 -206l-238 13l-17 254l5 166l-71 23l429 389l423 -369l-43 -41l-18 -370l-17 -57l-224 -8l-4 149l-14 100l-28 23l-55 9l-68 -6l-42 -6z" />
    <glyph glyph-name="uniE612" unicode="&#xe612;" 
d="M554 372q-34 0 -53.5 -25t-19.5 -65t19.5 -65t52.5 -25q34 0 52.5 24t18.5 65q0 42 -18 66.5t-52 24.5zM917 511q36 39 24 138q-8 48 -15 46q-4 -9 -14.5 -15t-18.5 -8l-9 -1q2 1 4 6t4.5 26.5t-2.5 59.5q-4 36 -14 64.5t-17 39.5l-7 10q-21 -31 -62 -71q-18 -18 -45 -29
t-45 -13l-18 -2q4 11 6 30q2 9 1 18t-3 15l-2 6q-9 -13 -56 -44q-32 -20 -46 -23q-35 6 -72 6q-91 0 -174 -35.5t-143 -95.5t-96 -143.5t-36 -174.5t36 -174.5t96 -143.5t143 -95.5t174.5 -35.5t174.5 35.5t143 95.5t96 143.5t36 174.5q0 100 -43 190zM374 147h-57v111h-116
v-111h-57v271h57v-110h116v110h57v-271zM648 181.5q-37 -39.5 -96 -39.5t-95 38t-36 99q0 63 37 103t98 40q58 0 93.5 -38.5t35.5 -99.5q0 -63 -37 -102.5zM902 370h-77v-223h-58v223h-77v48h212v-48z" />
    <glyph glyph-name="uniE613" unicode="&#xe613;" 
d="M952 331q2 -5 2 -10v-366q0 -33 -27.5 -56.5t-60.5 -23.5h-220h-263h-220q-32 0 -59.5 23.5t-27.5 56.5v366q0 5 1 10q-33 38 -52.5 96t-19.5 109l211 357h597l211 -357q0 -51 -19.5 -109t-52.5 -96zM128 -45q0 -9 11.5 -18t23.5 -9h703q12 0 23.5 9t11.5 18v338
q-17 -7 -35 -7q-77 0 -126.5 36t-49.5 107q0 -71 -49 -107.5t-126.5 -36.5t-126.5 36.5t-49 107.5q0 -71 -49 -107t-127 -36q-18 0 -35 7v-338zM783 840h-5h-532l-188 -318q5 -64 37 -123.5t68 -59.5q21 0 39.5 3.5t39 12t32.5 27.5t12 47q0 22 15.5 37.5t37.5 15.5
t37.5 -15.5t15.5 -37.5q0 -28 12 -47t32.5 -28t39 -12t39 -3t39 3t39 12t33 28t12.5 47q0 22 15 37.5t37 15.5t37.5 -15.5t15.5 -37.5q0 -28 12 -47t32.5 -27.5t39 -12t39.5 -3.5q36 0 68.5 59.5t36.5 123.5zM864 545h-698q-11 0 -19 8t-8 19t8 18.5t19 7.5h698
q11 0 18.5 -7.5t7.5 -18.5t-7.5 -19t-18.5 -8z" />
    <glyph glyph-name="uniE614" unicode="&#xe614;" horiz-adv-x="1025" 
d="M754 -128q-80 0 -211 81q-124 76 -242 192h-1l-24 24q-115 119 -192 243q-81 131 -81 210q0 78 73 174q13 19 29 36.5t45 39t52 21.5q29 0 72 -44q31 -33 66 -83q34 -49 57 -92q27 -51 27 -76q0 -32 -34 -55q-14 -10 -49 -25q-30 -13 -37 -19q6 -24 42 -77
q43 -63 93 -114q51 -50 114 -93q53 -36 78 -42q5 7 18 37q15 34 25 49q23 33 56 33q25 0 75 -26q44 -23 92 -57q51 -36 83 -67q44 -42 44 -72q0 -23 -21 -52t-39 -44.5t-36 -29.5q-96 -72 -174 -72zM343 188q114 -111 232 -184q116 -72 179 -72q56 0 135 58q33 25 55 50
q16 18 19 29q-5 11 -31.5 36.5t-74.5 57.5q-43 30 -80 50q-33 17 -47 19q-4 -3 -9.5 -12.5t-16.5 -33.5q-13 -31 -21 -43q-20 -31 -49 -31h-1q-37 1 -114 53q-67 46 -122 100h-1q-54 55 -100 123q-52 76 -52 114q-1 29 30 49q12 9 43 22q25 11 34.5 16.5t12.5 9.5
q-3 13 -20 46q-20 38 -49 81q-33 47 -58.5 74t-35.5 32q-11 -3 -30 -19q-25 -22 -49 -56q-58 -78 -58 -135q0 -62 71 -179q73 -118 184 -232z" />
    <glyph glyph-name="uniE615" unicode="&#xe615;" 
d="M522 892q-103 0 -192 -53t-141.5 -142.5t-52.5 -192.5q0 -44 12 -92t28 -88.5t46 -90.5t53 -84t63 -83.5t61.5 -75t62.5 -71.5q11 -14 17 -20q2 -3 7 -7.5t18 -11t25 -6.5h3q28 0 50 25q318 366 318 605q0 79 -25.5 149t-73 123.5t-119.5 84.5t-160 31zM535 -58
q-2 -2 -5 -4l-4 4l-16 19q-39 44 -59.5 68t-58.5 71t-60 79t-50.5 78.5t-44 83.5t-26.5 80.5t-11 82.5q0 86 43.5 161t118 119t160.5 44q78 0 140 -27.5t99 -74t56 -103.5t19 -119q0 -215 -301 -562zM519 699q-79 0 -135 -56t-56 -135t56 -135t135 -56t135 56t56 135
t-56 135t-135 56zM519 381q-52 0 -90 38t-38 90.5t37 90t90 37.5t90 -37.5t37 -89.5q0 -53 -36.5 -91t-89.5 -38z" />
    <glyph glyph-name="uniE616" unicode="&#xe616;" 
d="M735 851q-65 0 -123.5 -31t-99.5 -86q-40 55 -98.5 86t-123.5 31q-119 0 -203 -92t-84 -221q0 -37 7 -70.5t21.5 -65t25 -50t29.5 -47.5q30 -48 81.5 -105t98 -101.5t100 -90.5t74.5 -63t35 -28q17 -12 37 -12t37 12q14 11 35.5 28.5t74.5 63t99.5 90t98 101.5t81.5 105
q19 29 29.5 47.5t25 50t21.5 65t7 70.5q0 129 -84 221t-202 92zM886 344q-29 -45 -78 -99.5t-98.5 -100.5t-95 -85.5t-73.5 -62t-29 -22.5q-11 9 -30 24t-71 60t-97.5 87.5t-96 98t-78.5 100.5q-24 37 -37 60.5t-24 60t-11 73.5q0 101 65 172t158 71q67 0 122 -40t81 -105v1
q5 -16 19.5 -16t18.5 16q27 64 82 104t122 40q92 0 157 -71t65 -172q0 -53 -18 -95.5t-53 -98.5z" />
    <glyph glyph-name="uniE617" unicode="&#xe617;" 
d="M735 851q-65 0 -123.5 -31t-99.5 -86q-40 55 -98.5 86t-123.5 31q-119 0 -203 -92t-84 -221q0 -37 7 -70.5t21.5 -65t25 -50t29.5 -47.5q30 -48 81.5 -105t98 -101.5t100 -90.5t74.5 -63t35 -28q17 -12 37 -12t37 12q14 11 35.5 28.5t74.5 63t99.5 90t98 101.5t81.5 105
q19 29 29.5 47.5t25 50t21.5 65t7 70.5q0 129 -84 221t-202 92zM886 344q-29 -45 -78 -99.5t-98.5 -100.5t-95 -85.5t-73.5 -62t-29 -22.5q-11 9 -30 24t-71 60t-97.5 87.5t-96 98t-78.5 100.5q-24 37 -37 60.5t-24 60t-11 73.5q0 101 65 172t158 71q67 0 122 -40t81 -105v1
q5 -16 19.5 -16t18.5 16q27 64 82 104t122 40q92 0 157 -71t65 -172q0 -53 -18 -95.5t-53 -98.5zM516 650l-68 110l-126 42h-102l-110 -98l-62 -138l12 -90l36 -106l122 -176l230 -200l68 -46l176 120l164 160l122 202l14 142l-60 154l-108 68l-102 14l-110 -34z" />
    <glyph glyph-name="uniE618" unicode="&#xe618;" 
d="M513 894q-104 0 -198.5 -40.5t-163 -109t-109 -163t-40.5 -198.5t40.5 -198.5t109 -163t163 -109t198.5 -40.5t198.5 40.5t163 109t109 163t40.5 198.5t-40.5 198.5t-109 163t-163 109t-198.5 40.5zM746 332h-182v-182q0 -21 -15 -36t-36 -15t-36 15t-15 36v182h-183
q-21 0 -36 15t-15 36t15 36t36 15h183v183q0 21 15 36t36 15t36 -15t15 -36v-183h182q22 0 36.5 -15t14.5 -36t-14.5 -36t-36.5 -15z" />
    <glyph glyph-name="uniE619" unicode="&#xe619;" 
d="M512 893q106 0 199.5 -40.5t162 -109t109 -161.5t40.5 -198.5t-40.5 -199t-109 -162.5t-162 -109t-199.5 -40t-198.5 40t-161.5 109t-109.5 162.5t-40.5 199t40.5 198.5t109.5 161.5t161.5 109t198.5 40.5zM766 314q34 0 61.5 17.5t27.5 53.5q0 34 -27.5 50.5t-61.5 16.5
h-503q-34 0 -62.5 -16.5t-28.5 -50.5q0 -36 28.5 -53.5t62.5 -17.5h503z" />
    <glyph glyph-name="uniE61A" unicode="&#xe61a;" 
d="M252 395h526v-28h-526v28zM501 644h28v-526h-28v526zM933 -107h-836q-29 0 -49.5 20.5t-20.5 49.5v836q0 29 20.5 49.5t49.5 20.5h836q29 0 49.5 -20.5t20.5 -49.5v-836q0 -29 -20.5 -49.5t-49.5 -20.5zM97 835q-15 0 -25.5 -10.5t-10.5 -25.5v-836q0 -15 10.5 -25.5
t25.5 -10.5h836q15 0 25.5 10.5t10.5 25.5v836q0 15 -10.5 25.5t-25.5 10.5h-836z" />
    <glyph glyph-name="uniE61B" unicode="&#xe61b;" 
d="M252 395h526v-28h-526v28zM933 -107h-836q-29 0 -49.5 20.5t-20.5 49.5v836q0 29 20.5 49.5t49.5 20.5h836q29 0 49.5 -20.5t20.5 -49.5v-836q0 -29 -20.5 -49.5t-49.5 -20.5zM97 835q-15 0 -25.5 -10.5t-10.5 -25.5v-836q0 -15 10.5 -25.5t25.5 -10.5h836
q15 0 25.5 10.5t10.5 25.5v836q0 15 -10.5 25.5t-25.5 10.5h-836z" />
    <glyph glyph-name="uniE61C" unicode="&#xe61c;" 
d="M252 395h526v-28h-526v28z" />
    <glyph glyph-name="uniE61D" unicode="&#xe61d;" horiz-adv-x="1026" 
d="M408 -94q-192 0 -300 110q-31 32 -53 72.5t-32.5 72.5t-16 66.5t-6 48.5t-0.5 24v236h816v-242q0 -10 -0.5 -23.5t-6 -47t-15.5 -65t-32 -71t-52 -70.5q-108 -112 -302 -111zM64 472v-173q-1 -37 10 -85q22 -94 81 -154q88 -90 253 -90q166 0 255 91q57 58 79 150
q11 47 10 82v1v178h-688zM165 590q-51 0 -76 25q-22 21 -23 57q-1 31 20 53q10 11 34 24q17 9 22 14.5t5 15.5q0 9 -4 14q-7 7 -23 10t-28 3l-4 63q10 1 22.5 0.5t37.5 -8.5t40 -23q25 -25 23 -62q-2 -34 -23 -57q-12 -12 -37 -26q-15 -8 -18 -11.5t-3 -8.5q0 -9 3 -12
q8 -7 40 -7h6v-64h-5h-9zM412 590q-50 0 -75 25q-23 21 -23 57q-1 31 20 53q10 11 34 24q16 9 21 14.5t6 15.5q0 9 -5 14q-7 7 -23 10t-28 3l-3 63q9 1 21.5 0.5t37.5 -8.5t41 -23q24 -25 23 -62q-2 -34 -24 -57q-11 -12 -36 -26q-15 -8 -18 -11.5t-3 -8.5q0 -9 3 -12
q7 -7 40 -7h6v-64h-5h-10zM675 590q-51 0 -76 25q-22 21 -23 57q-1 31 20 53q10 11 34 24q17 9 22 14.5t5 15.5q0 9 -4 14q-7 7 -23 10t-28 3l-4 63q10 1 22.5 0.5t37.5 -8.5t40 -23q25 -25 23 -62q-2 -34 -23 -57q-12 -12 -37 -26q-15 -8 -18 -11.5t-3 -8.5q0 -9 3 -12
q8 -7 40 -7q4 1 6 1v-64q-1 0 -5 -1h-9zM891.5 270q-55.5 0 -94.5 39t-39 94.5t39 94.5t94.5 39t94.5 -39t39 -94.5t-39 -94.5t-94.5 -39zM891.5 473q-28.5 0 -49 -20.5t-20.5 -49t20.5 -49t49 -20.5t49 20.5t20.5 49t-20.5 49t-49 20.5z" />
    <glyph glyph-name="uniE61E" unicode="&#xe61e;" 
d="M385 740q-11 0 -19 8t-8 19v66q0 21 16 37q22 23 67 23h152h1q15 -1 30 -7q40 -16 40 -52v-66q0 -11 -8 -19t-19 -8t-19 8t-8 19v64q-6 5 -20 7h-149q-25 0 -29 -7v-65q0 -11 -8 -19t-19 -8zM990 633h-955q-13 0 -22.5 9.5t-9.5 22.5t9.5 22.5t22.5 9.5h955
q13 0 22.5 -9.5t9.5 -22.5t-9.5 -22.5t-22.5 -9.5zM790 -128h-560h-2q-19 3 -37 14q-40 24 -40 72v692q0 13 9.5 22.5t22.5 9.5t22.5 -9.5t9.5 -22.5v-692q0 -12 8 -17q5 -3 12 -5h555q12 0 19 7l2 2v716q0 13 9.5 22.5t22.5 9.5t22.5 -9.5t9.5 -22.5v-728l-2 -5
q-5 -15 -17 -29q-26 -27 -66 -27zM384 55q-11 0 -19 8t-8 19v400q0 11 8 19t19 8t19 -8t8 -19v-400q0 -11 -8 -19t-19 -8zM639 55q-11 0 -19 8t-8 19v400q0 11 8 19t19 8t19 -8t8 -19v-400q0 -11 -8 -19t-19 -8z" />
    <glyph glyph-name="uniE61F" unicode="&#xe61f;" 
d="M808 -124h-711q-38 0 -65.5 26t-27.5 63v841q0 38 28 63.5t66 23.5h569q13 0 22.5 -9.5t9.5 -22.5t-9.5 -22.5t-22.5 -9.5h-571h-1q-12 1 -20 -7q-7 -6 -7 -16v-841q0 -10 8.5 -17.5t20.5 -7.5h711q12 0 20.5 7.5t8.5 17.5v514q0 13 9.5 22.5t22.5 9.5t22.5 -9.5
t9.5 -22.5v-514q0 -37 -27 -63t-66 -26zM193 98q-13 0 -22.5 9.5t-9.5 22.5t10 23l742 731q9 9 22 9t22.5 -9.5t9.5 -22.5t-10 -23l-742 -731q-9 -9 -22 -9z" />
    <glyph glyph-name="uniE620" unicode="&#xe620;" horiz-adv-x="1026" 
d="M165 590q-51 0 -76 25q-22 21 -23 57q-1 31 20 53q10 11 34 24q17 9 22 14.5t5 15.5q0 9 -4 14q-7 7 -23 10t-28 3l-4 63q10 1 22.5 0.5t37.5 -8.5t40 -23q25 -25 23 -62q-2 -34 -23 -57q-12 -12 -37 -26q-15 -8 -18 -11.5t-3 -8.5q0 -9 3 -12q8 -7 40 -7h6v-64h-5h-9z
M412 590q-50 0 -75 25q-23 21 -23 57q-1 31 20 53q10 11 34 24q16 9 21 14.5t6 15.5q0 9 -5 14q-7 7 -23 10t-28 3l-3 63q9 1 21.5 0.5t37.5 -8.5t41 -23q24 -25 23 -62q-2 -34 -24 -57q-11 -12 -36 -26q-15 -8 -18 -11.5t-3 -8.5q0 -9 3 -12q7 -7 40 -7h6v-64h-5h-10z
M675 590q-51 0 -76 25q-22 21 -23 57q-1 31 20 53q10 11 34 24q17 9 22 14.5t5 15.5q0 9 -4 14q-7 7 -23 10t-28 3l-4 63q10 1 22.5 0.5t37.5 -8.5t40 -23q25 -25 23 -62q-2 -34 -24 -57q-11 -12 -36 -26q-15 -8 -18 -11.5t-3 -8.5q0 -9 3 -12q8 -7 40 -7q4 1 6 1v-64
q-1 0 -5 -1h-9zM892 537q-42 0 -76 -24v23h-816v-236q0 -10 0.5 -24t6 -48.5t16 -66.5t32.5 -72.5t53 -72.5q108 -110 300 -110q194 0 302 111q36 37 60.5 84.5t33 90.5t10.5 65t2 36q34 -23 76 -23q55 0 94 39t39 94.5t-39 94.5t-94 39zM891.5 334q-28.5 0 -49 20.5
t-20.5 49t20.5 49t49 20.5t49 -20.5t20.5 -49t-20.5 -49t-49 -20.5z" />
    <glyph glyph-name="uniE621" unicode="&#xe621;" 
d="M513.5 -117.5q-100.5 -0.5 -192.5 39.5t-158.5 107.5t-105.5 160.5t-39 195t39 195t105.5 160t158.5 107t192.5 40t192 -40t158 -107t106 -160t39.5 -195t-39.5 -195t-106 -160.5t-158 -107t-192 -40zM513.5 810q-113.5 0 -210.5 -57t-153 -155t-56 -213.5t56 -213
t153 -154.5t210.5 -57t210 57t153 154.5t56.5 213t-56.5 213.5t-153 155t-210 57zM513.5 37q-15.5 0 -27 11.5t-11.5 27.5v386q0 16 11.5 27.5t27 11.5t26.5 -11.5t11 -27.5v-386q0 -16 -11 -27.5t-26.5 -11.5zM666 346h-305q-16 0 -27 11.5t-11 27.5t11 27t27 11h305
q15 0 26.5 -11t11.5 -27t-11.5 -27.5t-26.5 -11.5zM513 423q-16 0 -27 11.5t-11 27.5t11 27l153 155q11 11 27 11t27 -11t11 -27t-11 -28l-153 -154q-11 -12 -27 -12zM513.5 424q-15.5 0 -26.5 11l-153 154q-11 12 -11 28t11 27t27 11t27 -11l152 -155q12 -11 12 -27
t-11.5 -27t-27 -11zM666 192h-305q-16 0 -27 11t-11 27t11 27.5t27 11.5h305q15 0 26.5 -11.5t11.5 -27.5t-11.5 -27t-26.5 -11z" />
    <glyph glyph-name="uniE622" unicode="&#xe622;" 
d="M463 -120q-10 0 -19 7q-106 79 -212 188q-218 224 -218 385q0 95 30 173q32 80 94 136q64 58 157 87q95 30 217 30q233 0 375 -144q60 -62 92 -140q31 -74 31 -148q0 -73 -30 -146q-30 -75 -84 -135q-58 -65 -135 -100q-83 -40 -179 -39h-64q-14 0 -23 9t-9 22.5t9 23
t23 9.5h64q69 0 129 22.5t102 59.5t72.5 84t45.5 95.5t15 94.5q0 64 -28 128.5t-77 114.5q-123 125 -329 125q-210 0 -322 -93.5t-112 -268.5q0 -135 199 -340q103 -105 206 -182q10 -8 12 -21t-6 -24q-9 -13 -26 -13zM463.5 -114q-13.5 0 -22.5 9t-9 23v180h86
q13 0 22.5 -9.5t9.5 -23t-9.5 -22.5t-22.5 -9h-22v-116q0 -14 -9.5 -23t-23 -9zM282 364q-37 0 -63 26t-26 63t26 63t63 26t63 -26t26 -63t-26 -63t-63 -26zM282 498q-18 0 -31.5 -13.5t-13.5 -31.5t13.5 -31.5t31.5 -13.5t31.5 13.5t13.5 31.5t-13.5 31.5t-31.5 13.5z
M503.5 364q-36.5 0 -62.5 26t-26 63t26 63t62.5 26t62.5 -26t26 -63t-26 -63t-62.5 -26zM503.5 498q-18.5 0 -31.5 -13.5t-13 -31.5t13 -31.5t31.5 -13.5t31.5 13.5t13 31.5t-13 31.5t-31.5 13.5zM727 364q-37 0 -63 26t-26 63t26 63t63 26t62.5 -26t25.5 -63t-25.5 -63
t-62.5 -26zM727 498q-18 0 -31.5 -13.5t-13.5 -31.5t13.5 -31.5t31.5 -13.5t31 13.5t13 31.5t-13 31.5t-31 13.5z" />
    <glyph glyph-name="uniE623" unicode="&#xe623;" 
d="M512.5 -116q-101.5 0 -194.5 39q-90 38 -159 107t-107 159q-39 93 -39 194.5t39 194.5q38 89 107 158t159 107q93 39 194.5 39t194.5 -39q89 -38 158 -107t107 -158q40 -93 40 -194.5t-40 -194.5q-38 -90 -107 -159t-158 -107q-93 -39 -194.5 -39zM512.5 818
q-88.5 0 -169 -34.5t-139 -92.5t-93 -138.5t-34.5 -169t34.5 -169t93 -139t139 -93t169 -34.5t169 34.5t138.5 93t93 139t35 169t-35 169t-93 138.5t-138.5 92.5t-169 34.5zM512 377q-69 0 -118 49t-49 118t49 118t118 49t118 -49t49 -118t-49 -118t-118 -49zM512.5 657
q-46.5 0 -80 -33t-33.5 -80t33.5 -80t80 -33t79.5 33t33 80t-33 80t-79.5 33zM833 60q-17 43 -66 87q-97 86 -255 86q-159 0 -257 -88q-21 -19 -37 -41t-20 -31l-7 -13l-50 19q2 7 7.5 17.5t25.5 38t45 50.5q50 45 114 70q81 32 179.5 32t178.5 -32q65 -25 115 -70
q25 -23 45 -50.5t25 -38t8 -17.5z" />
    <glyph glyph-name="uniE624" unicode="&#xe624;" 
d="M264.5 464q34.5 0 59 -24.5t24.5 -59t-24.5 -59t-59 -24.5t-59 24.5t-24.5 59t24.5 59t59 24.5zM264.5 339q17.5 0 29.5 12t12 29.5t-12 29.5t-29.5 12t-29.5 -12t-12 -29.5t12 -29.5t29.5 -12zM763.5 464q34.5 0 59 -24.5t24.5 -59t-24.5 -59t-59 -24.5t-58.5 24.5
t-24 59t24 59t58.5 24.5zM764 339q17 0 29 12t12 29.5t-12 29.5t-29 12t-29.5 -12t-12.5 -29.5t12.5 -29.5t29.5 -12zM514 818q130 0 240.5 -56t174.5 -152.5t64 -209.5q0 -120 -78 -228q-8 -15 -7.5 -40.5t8 -59t16 -61.5t15.5 -48t7 -19q-27 8 -68 19t-119.5 27.5
t-99.5 10.5q-65 -19 -153 -19q-130 0 -240 56t-174 152t-64 209.5t64 210t174 152.5t240 56zM514 25q65 0 133 18q18 5 78.5 -4.5t112 -20.5t51.5 -12q-1 3 -3 8.5t-7 21.5t-9 31t-8.5 33.5t-7 33t-2.5 26t4 15.5q44 43 69.5 103t25.5 122q0 102 -58.5 188.5t-159 137
t-219.5 50.5t-219.5 -50.5t-159 -137t-58.5 -188.5t58.5 -188.5t159 -136.5t219.5 -50zM514.5 464q34.5 0 58.5 -24.5t24 -59t-24 -59t-58.5 -24.5t-59 24.5t-24.5 59t24.5 59t59 24.5zM514 339q17 0 29.5 12t12.5 29.5t-12.5 29.5t-29.5 12t-29.5 -12t-12.5 -29.5
t12.5 -29.5t29.5 -12z" />
    <glyph glyph-name="uniE625" unicode="&#xe625;" 
d="M369 298q0 -6 1 -14.5t9 -31t21.5 -40t43 -31.5t69.5 -14t69.5 13.5t43 32.5t21.5 38.5t8 32.5l1 14q-5 -6 -15.5 -13.5t-42 -22.5t-64 -19.5t-78 7.5t-87.5 48zM776 351q0 109 -77 186t-186 77t-186 -77t-77 -186q0 -107 74 -183q33 -30 68 -49q23 -11 45 -20
q37 -12 76 -12q109 0 186 77.5t77 186.5zM512.5 127q-92.5 0 -158 65.5t-65.5 158t65.5 158t158 65.5t158 -65.5t65.5 -158t-65.5 -158t-158 -65.5zM848 433q-28 114 -121.5 188t-213.5 74t-213.5 -74t-121.5 -188q-4 0 -10 -1.5t-22 -9t-28 -18.5t-21 -32t-8 -47
q4 -74 79 -95l23 -4q3 -1 6.5 -0.5t12.5 2.5t10 2q-23 58 -23 121q0 131 92.5 223.5t223.5 92.5t223.5 -92.5t92.5 -223.5q0 -104 -60 -186t-155 -114q-4 -1 -8 -1t-6 1l-3 1q-21 4 -48 -4q-19 -5 -17.5 -29.5t21.5 -27.5q47 -7 58 15q9 17 13 18q72 25 127.5 78t83.5 124
q3 1 10 2t24 8t30 17t24 29.5t12 45t-8 45.5t-22 30.5t-26 18t-22 9.5z" />
    <glyph glyph-name="uniE626" unicode="&#xe626;" 
d="M333 380q28 0 47.5 20t19.5 48t-19.5 47.5t-47.5 19.5t-48 -19.5t-20 -47.5t20 -48t48 -20zM332.5 475q11.5 0 19 -8t7.5 -19t-7.5 -19t-19 -8t-19 8t-7.5 19t7.5 19t19 8zM522 380q28 0 48 20t20 48t-20 47.5t-48 19.5t-48 -19.5t-20 -47.5t20 -48t48 -20zM522 475
q11 0 19 -8t8 -19t-8 -19t-19 -8t-19 8t-8 19t8 19t19 8zM711 380q28 0 48 20t20 48t-20 47.5t-48 19.5t-48 -19.5t-20 -47.5t20 -48t48 -20zM711 475q11 0 19 -8t8 -19t-8 -19t-19 -8t-19 8t-8 19t8 19t19 8zM777 -62h1h54l-41 36q-34 30 -66 74q-26 38 -39 71
q140 32 224 127q90 100 90 237q0 78 -38 150q-37 68 -104 120q-67 53 -154 81.5t-182 28.5t-182 -28.5t-154 -81.5q-67 -52 -104 -120q-38 -72 -38 -150q0 -74 30 -141.5t86 -119.5t132 -82q74 -29 160 -35q46 -58 149 -111q108 -56 176 -56zM521.5 822q118.5 0 219.5 -45.5
t159.5 -123.5t58.5 -170q0 -121 -79 -210q-83 -92 -224 -119l-22 -4l6 -21q17 -66 79 -140q-47 14 -99 42q-102 53 -141 106l-5 8l-10 1q-85 4 -157 32q-69 27 -120 74q-102 95 -102 231q0 92 58.5 170t159 123.5t219 45.5z" />
    <glyph glyph-name="uniE627" unicode="&#xe627;" 
d="M512.5 892q-103.5 0 -197 -40.5t-161.5 -108.5t-108 -161.5t-40 -197t40 -197t108 -161.5t161.5 -108t197 -40t197 40t161.5 108t108.5 161.5t40.5 197t-40.5 197t-108.5 161.5t-161.5 108.5t-197 40.5zM581 457q1 1 2 3q12 12 26 2q25 -17 30 -46t-12 -54
q-4 -7 -12.5 -8.5t-15.5 3.5t-8.5 13.5t3.5 15.5q7 10 4.5 22.5t-12.5 19.5q-7 5 -8.5 13.5t3.5 15.5zM645 42h-1v-1q-2 -3 -5 -5q-31 -34 -72 -45q-93 -25 -188 67.5t-139 252.5q-35 124 -21 235t71 168v0q29 29 66 39q35 9 82 -1q2 0 9 -2q35 -11 54.5 -56.5t11.5 -105.5
q-8 -69 -44 -106q-26 -26 -57 -21q-7 -2 -10 -5q-2 -2 -2 -7q6 -45 18 -89q11 -40 27 -78q6 -8 10 -9q2 0 3 1q19 19 49 16q27 -2 56.5 -21t53.5 -51q38 -49 46 -99.5t-18 -76.5zM692 335q-5 -7 -13.5 -8.5t-15.5 3.5t-8.5 13t3.5 15q20 29 13.5 63.5t-35.5 54.5
q-7 5 -8.5 13.5t3.5 15.5q1 1 2 3q12 12 26 2q43 -29 52.5 -80.5t-19.5 -94.5zM755 282q-5 -7 -13.5 -8.5t-15.5 3t-8.5 13t3.5 15.5q41 60 28 131t-72 113q-7 4 -9 12.5t3 15.5q1 2 3 3q12 12 26 2q74 -50 90 -138.5t-35 -161.5zM504 250q-12 0 -18 -5q-14 -15 -35 -13
q-24 3 -41 29q-1 1 -1 3q-18 41 -30 85q-14 48 -20 97v4q0 21 14 35q15 15 38 17q3 0 6 -1q11 -2 23 10q26 26 33 82q5 43 -6.5 77.5t-28.5 40.5q-3 0 -7 2q-34 9 -64 0q-27 -7 -48 -28q-49 -49 -60 -150t20 -213q25 -91 72 -163t102 -107t104 -21q30 8 53 34q2 2 4 3l2 2
q14 12 5.5 49.5t-36.5 73.5q-19 24 -41 39.5t-40 17.5z" />
    <glyph glyph-name="uniE628" unicode="&#xe628;" 
d="M856 668h-780q-13 0 -22.5 9.5t-9.5 23t9.5 22.5t22.5 9h780q14 0 23 -9t9 -22.5t-9 -23t-23 -9.5zM513 340h-437q-13 0 -22.5 9t-9.5 22.5t9.5 23t22.5 9.5h437q14 0 23 -9.5t9 -23t-9 -22.5t-23 -9zM388 8h-312q-13 0 -22.5 9.5t-9.5 23t9.5 22.5t22.5 9h312
q13 0 22.5 -9t9.5 -22.5t-9.5 -23t-22.5 -9.5zM640 340q-12 0 -21 8q-10 8 -10.5 21.5t8.5 23.5l137 155q8 10 21.5 10.5t23.5 -8t10.5 -22t-8.5 -23.5l-137 -155q-9 -10 -24 -10zM926 346q-13 0 -23 9l-148 149q-9 9 -9 22.5t9 23t22.5 9.5t22.5 -10l149 -148q9 -10 9 -23
t-9.5 -22.5t-22.5 -9.5zM777.5 8q-13.5 0 -22.5 9.5t-9 22.5v486q0 14 9 23t22.5 9t23 -9t9.5 -23v-486q0 -13 -9.5 -22.5t-23 -9.5z" />
    <glyph glyph-name="uniE629" unicode="&#xe629;" 
d="M873 -64h-720q-76 0 -107 52t7 119l363 657q37 68 96.5 68t96.5 -68l364 -657q38 -67 7.5 -119t-107.5 -52zM513 763q-19 0 -37 -32l-364 -657q-18 -33 -7 -51t48 -18h720q37 0 48 18t-7 51l-364 657q-18 32 -37 32zM513 247q-14 0 -24 10t-10 24v310q0 15 10 25t24 10
t24 -10t10 -25v-310q0 -14 -10 -24t-24 -10zM513 78q22 0 37.5 16t15.5 38t-15.5 38t-37.5 16t-38 -16t-16 -38t16 -38t38 -16z" />
    <glyph glyph-name="uniE62A" unicode="&#xe62a;" 
d="M972 578q-38 89 -107 158t-159 107q-93 39 -194.5 39t-194.5 -39q-89 -38 -158 -107t-107 -158q-39 -93 -39.5 -194.5t39.5 -194.5q30 -71 80 -129q12 -16 27 -30q69 -69 158 -107q93 -39 194.5 -39t194.5 39q90 38 159 107t107 159q39 93 39 194.5t-39 194.5zM511.5 431
q-46.5 0 -79.5 33t-33 80t33 80t79.5 33t80 -33t33.5 -80t-33.5 -80t-80 -33zM511.5 -52q-89.5 0 -170 34.5t-140.5 96.5q21 36 54 66q97 88 257 88q158 0 255 -86q34 -31 56 -68q-61 -62 -141.5 -96.5t-170 -34.5z" />
    <glyph glyph-name="uniE62B" unicode="&#xe62b;" 
d="M620 -18l-399 230h-118q-15 0 -25.5 10.5t-10.5 25.5v272q0 15 10.5 25.5t25.5 10.5h118l399 230v-804zM103 523q-3 0 -3 -3v-272q0 -3 3 -3h127l357 -206v690l-357 -206h-127zM625 -26l-405 233h-117q-17 0 -29 12t-12 29v272q0 17 12 29t29 12h117l405 233v-820z
M103 551q-13 0 -22 -9t-9 -22v-272q0 -13 9 -22t22 -9h119h1l392 -226v786l-393 -226h-119zM592 31l-364 209h-125q-8 0 -8 8v272q0 8 8 8h125l364 209v-706zM105 250h126h1l350 -202v672l-351 -202h-126v-268zM209 539h33v-310h-33v310zM247 224h-43v320h43v-320zM214 234
h23v300h-23v-300zM735 264l-14 30q28 13 44.5 39.5t16.5 57.5t-16.5 57.5t-44.5 39.5l14 30q37 -17 58.5 -52t21.5 -75q0 -41 -21.5 -75t-58.5 -52zM733 257l-19 39l5 2q27 13 42.5 38t15.5 55t-15.5 55t-42.5 38l-5 2l19 39l4 -2q38 -19 60.5 -54.5t22.5 -77.5t-22 -77.5
t-61 -54.5zM728 291l10 -20q33 17 52.5 49.5t19.5 70.5t-19.5 70.5t-52.5 49.5l-10 -20q27 -15 43 -41.5t16 -58.5t-16 -58.5t-43 -41.5zM791 134l-14 30q67 30 107 92t40 135q0 72 -39 133t-103 92l14 30q73 -35 117 -104.5t44 -150.5q0 -83 -45.5 -153t-120.5 -104z
M789 127l-18 39l4 2q66 30 105 90.5t39 132.5q0 70 -38 130t-101 91l-5 2l19 38l4 -2q75 -35 119.5 -106t44.5 -153q0 -84 -46 -155.5t-123 -106.5zM784 161l10 -21q72 35 115 103t43 148q0 78 -42 145.5t-112 102.5l-9 -21q63 -32 101.5 -93.5t38.5 -133.5
q0 -73 -39.5 -135.5t-105.5 -94.5z" />
    <glyph glyph-name="uniE62C" unicode="&#xe62c;" 
d="M886.5 646q-9.5 9 -22.5 9t-22 -10l-427 -454l-233 229q-10 10 -23 9.5t-22.5 -9.5t-9.5 -22.5t10 -22.5l256 -253h1q1 -2 7 -5l1 -1q1 -1 2 -1q6 -2 12 -2t12 2l2 2l1 1q6 3 7 4l1 1l449 478q9 10 8.5 23t-10 22z" />
    <glyph glyph-name="uniE62D" unicode="&#xe62d;" 
d="M875 -124h-727q-44 0 -75.5 31t-31.5 75l1 803q0 44 31 75.5t75 31.5h727q43 0 74.5 -31.5t31.5 -75.5v-803q0 -44 -31.5 -75t-74.5 -31zM148 828q-18 0 -30 -12.5t-12 -30.5v-803q0 -17 12 -29.5t30 -12.5h727q17 0 29.5 12.5t12.5 29.5v803q0 18 -12.5 30.5t-29.5 12.5
h-727zM558 636h248v-64h-248v64zM174 484h632v-64h-632v64zM174 330h632v-64h-632v64zM174 174h632v-64h-632v64z" />
    <glyph glyph-name="uniE62E" unicode="&#xe62e;" 
d="M875 892h-727q-44 0 -75 -31.5t-31 -75.5v-803q0 -44 31 -75t75 -31h727q43 0 74.5 31t31.5 75v803q0 44 -31.5 75.5t-74.5 31.5zM174 266v64h632v-64h-632zM806 174v-64h-632v64h632zM174 420v64h632v-64h-632zM558 572v64h248v-64h-248z" />
    <glyph glyph-name="uniE62F" unicode="&#xe62f;" 
d="M512.5 772.5q-172.5 -0.5 -311.5 -101.5t-199 -264q60 -162 199 -263.5t311.5 -101.5t312 101.5t199.5 263.5q-60 163 -199.5 264.5t-312 101zM512.5 164q-97.5 0 -165 70.5t-67.5 173t67.5 173t165 70.5t165 -70.5t67.5 -173t-67.5 -173t-165 -70.5zM512.5 553
q-59.5 0 -99.5 -42t-40 -104t40 -104t99.5 -42t99.5 42t40 104t-40 104t-99.5 42z" />
    <glyph glyph-name="uniE630" unicode="&#xe630;" 
d="M756 -116h-465q-51 0 -87.5 36.5t-36.5 88.5v750q0 52 36.5 88.5t87.5 36.5h465q51 0 87.5 -36.5t36.5 -88.5v-750q0 -52 -36.5 -88.5t-87.5 -36.5zM818 759q0 26 -18 44.5t-44 18.5h-465q-26 0 -44 -18.5t-18 -44.5v-31h589v31zM818 665h-589v-499h589v499zM818 104
h-589v-95q0 -26 18 -44.5t44 -18.5h465q26 0 44 18.5t18 44.5v95zM524 -22q-20 0 -33.5 13.5t-13.5 33t13.5 33t33 13.5t33 -13.5t13.5 -33t-13.5 -33t-32.5 -13.5zM756 -121h-465q-53 0 -91 38t-38 92v750q0 54 38 92t91 38h465q53 0 91 -38t38 -92v-750q0 -54 -38 -92
t-91 -38zM291 879q-49 0 -84 -35t-35 -85v-750q0 -50 35 -85t84 -35h465q49 0 84 35t35 85v750q0 50 -35 85t-84 35h-465zM756 -59h-465q-28 0 -47.5 20t-19.5 48v100h599v-100q0 -28 -19.5 -48t-47.5 -20zM234 99v-90q0 -24 17 -41t40 -17h465q24 0 40.5 17t16.5 41v90
h-579zM523.5 -27q-21.5 0 -36.5 15t-15 36.5t15 36.5t36.5 15t36.5 -15t15 -36.5t-15 -36.5t-36.5 -15zM523.5 66q-17.5 0 -29.5 -12t-12 -29.5t12 -29.5t29.5 -12t29.5 12t12 29.5t-12 29.5t-29.5 12zM823 161h-599v509h599v-509zM234 171h579v489h-579v-489zM823 723h-599
v36q0 28 19.5 48t47.5 20h465q28 0 47.5 -20t19.5 -48v-36zM234 733h579v26q0 24 -16.5 41t-40.5 17h-465q-23 0 -40 -17t-17 -41v-26z" />
    <glyph glyph-name="uniE631" unicode="&#xe631;" 
d="M886 137h-369l-173 -118q-14 -9 -30 -9q-12 0 -20 7.5t-9 19.5l-1 100h-135q-17 0 -28 11t-11 28v543q0 16 11 27.5t28 11.5h737q16 0 27.5 -11.5t11.5 -27.5v-543q0 -17 -11.5 -28t-27.5 -11zM867 700h-699v-505h136h10q12 0 20.5 -8.5t8.5 -20.5q0 -4 -1 -79l158 108
h367v505zM304 370q0 8 5.5 13.5t13.5 5.5h389q8 0 13.5 -5.5t5.5 -13.5t-5.5 -14t-13.5 -6h-389q-8 0 -13.5 6t-5.5 14zM712 506h-389q-8 0 -13.5 5.5t-5.5 13.5t5.5 13.5t13.5 5.5h389q8 0 13.5 -5.5t5.5 -13.5t-5.5 -13.5t-13.5 -5.5zM314 5q-14 0 -23.5 9t-10.5 22v1
l-1 95h-130q-19 0 -31.5 12.5t-12.5 31.5v543q0 18 12.5 31t31.5 13h737q18 0 31 -13t13 -31v-543q0 -19 -13 -31.5t-31 -12.5h-367l-172 -117q-15 -10 -33 -10zM290 37q1 -9 7.5 -15.5t16.5 -6.5q15 0 28 9l174 118h370q14 0 24 10t10 24v543q0 14 -10 24t-24 10h-737
q-14 0 -24 -10t-10 -24v-543q0 -14 10 -24t24 -10h140zM337 78v9q1 78 1 79q0 10 -7 17t-17 7h-151v515h709v-515h-370zM173 200h141q14 0 24 -10t10 -24q0 -3 -1 -69l152 103h363v495h-689v-495zM712 345h-389q-10 0 -17 7.5t-7 17.5t7 17t17 7h389q10 0 17 -7t7 -17
t-7 -17.5t-17 -7.5zM323 384q-6 0 -10 -4t-4 -10t4 -10.5t10 -4.5h389q6 0 10 4.5t4 10.5t-4 10t-10 4h-389zM712 501h-389q-10 0 -17 7t-7 17t7 17t17 7h389q10 0 17 -7t7 -17t-7 -17t-17 -7zM323 539q-6 0 -10 -4t-4 -10t4 -10t10 -4h389q6 0 10 4t4 10t-4 10t-10 4h-389z
" />
    <glyph glyph-name="uniE632" unicode="&#xe632;" 
d="M266.5 293q-53.5 0 -91 -37.5t-37.5 -91t37.5 -91.5t91 -38t91.5 38t38 91.5t-38 91t-91.5 37.5zM267 95q-29 0 -49.5 20t-20.5 49t20.5 49t49.5 20t49 -20t20 -49t-20 -49t-49 -20zM763.5 293q-53.5 0 -91.5 -37.5t-38 -91t38 -91.5t91.5 -38t91 38t37.5 91.5t-37.5 91
t-91 37.5zM763 95q-29 0 -49 20t-20 49t20 49t49 20t49 -20t20 -49t-20 -49t-49 -20zM441 283h148q12 0 21 9t9 21.5t-9 21t-21 8.5h-148q-12 0 -21 -8.5t-9 -21t9 -21.5t21 -9zM589 194h-148q-12 0 -20.5 -9t-8.5 -21t8.5 -21t20.5 -9h148q13 0 21.5 9t8.5 21t-8.5 21
t-21.5 9zM99 194v485h436v-295q0 -12 8.5 -19t20.5 -7q13 0 22 7t9 19v47q-1 259 0 273q0 16 -9 25t-21 9h-492q-32 0 -32 -29v-26v-513q-1 -19 8 -28q9 -8 24 -8h18q15 0 23.5 9.5t8.5 21.5q0 10 -6.5 18.5t-17.5 10.5zM991 449q-85 201 -95 219q-8 15 -13 17.5t-21 2.5
h-194q-20 0 -27 -8t-7 -24v-32v-226q0 -19 6 -30t23 -14q144 -28 182 -36h5q12 0 19.5 9t8.5 20t-4.5 19.5t-17.5 10.5q-27 6 -163 32v221h153l85 -194v-242q-11 -2 -17.5 -10t-6.5 -19q0 -12 7.5 -21.5t21.5 -9.5h26q10 1 19.5 8.5t9.5 21.5v284v1z" />
    <glyph glyph-name="uniE633" unicode="&#xe633;" 
d="M791 517h-9v45v2q-1 111 -80 189.5t-189.5 78.5t-190 -78t-80.5 -188v-2v-45h-9q-44 0 -74.5 -30.5t-30.5 -73.5v-142v-143v-2q0 -192 179 -192h410q88 0 133.5 48.5t45.5 143.5v285q0 43 -30.5 73.5t-74.5 30.5zM826 130q0 -70 -27.5 -100t-90.5 -30h-392
q-63 0 -90.5 29.5t-27.5 100.5v137v136q0 19 14 32.5t32 13.5h536q18 0 32 -13.5t14 -32.5v-273zM712 519h-400v39q0 86 59 146.5t141 60.5t141 -60.5t59 -144.5v-41zM508 96q16 0 28.5 12t12.5 29v97q32 22 32 60q0 30 -20 50t-49 20q-28 0 -48.5 -21t-20.5 -49
q-1 -18 6.5 -34.5t19.5 -25.5v-97q-1 -18 10.5 -29.5t28.5 -11.5z" />
    <glyph glyph-name="uniE634" unicode="&#xe634;" 
d="M512 750q-99 0 -183.5 -49t-133.5 -133.5t-49 -183.5t49 -183.5t133.5 -133.5t183.5 -49t183.5 49t133.5 133.5t49 183.5t-49 183.5t-133.5 133.5t-183.5 49zM510 170q-16 0 -27.5 11t-11.5 26.5t11.5 26.5t27.5 11t27 -11t11 -26.5t-11 -26.5t-27 -11zM655 427
q-16 -25 -68 -68q-27 -22 -33.5 -35.5t-5.5 -48.5h-77v20q0 37 12.5 61.5t49.5 54.5t44 39q11 15 11 33q0 24 -19.5 42t-53.5 18q-32 0 -54 -19q-10 -8 -18.5 -25t-11.5 -31q-1 -7 -20.5 -11t-38.5 1t-19 20q2 52 46 92q43 37 112 37q73 0 116.5 -38t43.5 -89q0 -28 -16 -53
z" />
    <glyph glyph-name="uniE635" unicode="&#xe635;" 
d="M510 851q-95 0 -182 -37t-150 -100t-100 -149.5t-37 -182t37 -182.5t100 -150t150 -100t182 -37t182 37t150 100t100 150t37 182.5t-37 182t-100 149.5t-150 100t-182 37zM509.5 -28q-111.5 0 -206 54.5t-149 149.5t-54.5 206.5t54.5 206t149 149.5t206 55t206.5 -55
t149.5 -149.5t54.5 -206t-54.5 -206.5t-149.5 -149.5t-206.5 -54.5zM419 482q0 3 1.5 9t9 21.5t18 26t31 18.5t45.5 5q31 -4 48.5 -16.5t19.5 -28.5t0 -28t-7 -19q-4 -10 -51.5 -51t-54.5 -59q-6 -14 -9.5 -37.5t-3.5 -39.5v-16h82q-1 7 -0.5 18.5t10.5 36t30 36.5
q19 11 38 29.5t36.5 44t21.5 52.5t-7 57q-38 60 -77.5 77.5t-99.5 15.5q-59 -1 -104 -34.5t-61 -106.5zM466 222h92v-102h-92v102z" />
    <glyph glyph-name="uniE636" unicode="&#xe636;" 
d="M512 382zM64 382q0 91 35.5 173.5t95.5 142.5t143 95.5t173.5 35.5t173.5 -35.5t143 -95.5t95 -142.5t35 -173.5t-35 -173.5t-95 -142.5t-143 -95.5t-173.5 -35.5t-173.5 35.5t-143 95.5t-95.5 142.5t-35.5 173.5z" />
    <glyph glyph-name="uniE637" unicode="&#xe637;" 
d="M917 896h-810q-44 0 -75.5 -31.5t-31.5 -75.5v-810q0 -44 31.5 -75.5t75.5 -31.5h810q44 0 75.5 31.5t31.5 75.5v810q0 44 -31.5 75.5t-75.5 31.5zM832 550q-56 -53 -95 -93q-49 -50 -112 -122q-136 -154 -245 -306l-329 318l185 146l158 -149q88 76 178 144q59 46 83 63
q49 36 87 61q125 87 192 129l49 -65q-47 -29 -151 -126z" />
    <glyph glyph-name="uniE638" unicode="&#xe638;" 
d="M512 896q-139 0 -257 -68.5t-186.5 -186.5t-68.5 -257t68.5 -257t186.5 -186.5t257 -68.5t257 68.5t186.5 186.5t68.5 257t-68.5 257t-186.5 186.5t-257 68.5zM419 67q-14 -12 -32.5 -12t-31.5 12l-265 259q-13 13 -13 31t13 31t32 13t32 -13l233 -227l454 443
q13 13 31.5 13t32 -13t13.5 -31.5t-14 -30.5z" />
    <glyph glyph-name="uniE639" unicode="&#xe639;" 
d="M857 -83h-696q-48 0 -82 34t-34 82v696q0 49 34.5 85.5t82.5 36.5h467v-58h-467q-24 0 -41.5 -19.5t-17.5 -44.5v-696q0 -24 17 -41t41 -17h696q25 0 44.5 17.5t19.5 40.5v468h58v-468q0 -47 -36.5 -81.5t-85.5 -34.5zM510 198q-11 -11 -30 -15l-254 -126q-21 -9 -35 5.5
t-6 35.5l126 255q4 19 15 30l451 451q17 17 41 17t41 -17l103 -102q17 -17 17 -41t-17 -41zM241 134q-5 -11 2.5 -18.5t17.5 -2.5l157 95l-82 83zM387 321l62 -61l20 -21l328 328l-103 102l-327 -327q5 -6 10 -10.5t10 -10.5zM900 711l-62 62q-8 8 -20 8t-21 -8l-60 -60
l101 -104l62 61q9 9 9 21t-9 20z" />
    <glyph glyph-name="uniE63A" unicode="&#xe63a;" 
d="M952 467q-8 6 -17 6q-13 0 -21 -10l-29 -36q-2 21 -6 42q-15 72 -53 134q-37 60 -92 104q-114 92 -258 92q-43 0 -85 -9q-82 -17 -150 -64q-67 -47 -111 -114.5t-60 -147.5q-16 -82 1 -165q15 -72 54 -134q37 -60 92 -104q113 -92 258 -92q42 0 84 9q118 24 206 112v1
q1 0 2 2q0 1 1 1v1q4 5 4 11q0 10 -7 16.5t-16 6.5q-7 0 -13 -4h-1l-3 -3q-77 -77 -182 -99q-37 -8 -74 -8q-129 0 -229.5 82.5t-126.5 209.5q-20 97 10.5 189.5t102.5 158t169 85.5q37 8 75 8q128 0 228.5 -82.5t127.5 -209.5q3 -17 5 -34l-35 29q-8 6 -17 6q-13 0 -21 -10
q-6 -9 -5 -20t10 -18l83 -67q9 -6 19 -5t17 10h1l66 83q6 8 5 19t-9 18z" />
    <glyph glyph-name="uniE63B" unicode="&#xe63b;" 
d="M834 60v720h-649v-720h-48v-54h48h649h51v54h-51zM780 726v-611h-119v129h-300v-129h-122v611h541zM528 60v63h-34v-63h-99v150h100v-42h34v42h98v-150h-99zM239 81h122v-21h-122v21zM661 60v21h119v-21h-119zM417 637h-139v-162h139v162zM383 509h-71v94h71v-94z
M417 453h-139v-161h139v161zM383 326h-71v93h71v-93zM585 637h-139v-162h139v162zM551 509h-71v94h71v-94zM585 453h-139v-161h139v161zM551 326h-71v93h71v-93zM746 637h-138v-162h138v162zM712 509h-70v94h70v-94zM746 453h-138v-161h138v161zM712 326h-70v93h70v-93z" />
    <glyph glyph-name="uniE63C" unicode="&#xe63c;" horiz-adv-x="1035" 
d="M927 -124h-739q-109 0 -157 50q-32 33 -31 72v757q0 74 70 109q31 15 64 17h1h565v-215h334v-645q0 -71 -51 -115q-25 -21 -52 -29zM64 -3q1 -14 13 -27q30 -30 111 -30h728q15 6 27 16q27 25 27 65v581h-334v216h-498q-22 -3 -41 -13q-33 -16 -33 -50v-758zM668 598
q-374 2 -490 2q-87 0 -140 58q-27 29 -37 60l62 19h-1q2 -3 4.5 -8.5t11.5 -18t20.5 -22t33 -17t46.5 -7.5q117 0 490 -2v-64zM980 38h-312q-38 0 -68 11q-37 13 -62 43q-53 62 -53 200q0 125 50 185q29 35 63 40l2 1h380v-64h-374q-13 -5 -26 -22q-31 -44 -31 -140
q0 -40 5 -71t11.5 -50.5t18.5 -33.5t21 -20.5t23 -10.5t21 -4h19h312v-64zM769 176q-44 0 -75.5 31t-31.5 75.5t31.5 76t75.5 31.5t75.5 -31.5t31.5 -76t-31.5 -75.5t-75.5 -31zM769 326q-18 0 -30.5 -13t-12.5 -30.5t12.5 -30t30.5 -12.5t30.5 12.5t12.5 30t-12.5 30.5
t-30.5 13z" />
    <glyph glyph-name="uniE63D" unicode="&#xe63d;" 
d="M875 221q-52 52 -120 77q36 18 65 46q72 72 72 174t-72.5 174.5t-173.5 72.5q-73 0 -134 -40q-61 40 -133 40q-102 0 -174.5 -72.5t-72.5 -174.5t73 -174q28 -28 64 -46q-68 -25 -120 -77q-91 -90 -95 -218h43q4 110 82 188q76 76 183 82q8 -1 16.5 -1t16.5 1
q107 -6 183 -82q78 -78 82 -188h43q-4 128 -95 218q-22 22 -47 40q33 10 68 12q8 -1 16.5 -1t16.5 1q107 -6 183 -82q78 -78 82 -188h43q-4 128 -95 218zM395 316q-8 1 -16.5 1t-16.5 -1q-78 6 -132.5 64.5t-54.5 137.5q0 84 60 143.5t143.5 59.5t143.5 -59.5t60 -143.5
q0 -79 -54.5 -137.5t-132.5 -64.5zM488 298q12 6 24 14q12 -8 24 -14l-24 -10zM662 316q-8 1 -16.5 1t-16.5 -1q-56 5 -86 19q5 5 10 9q72 72 72 174t-72 174q-3 2 -5 5q46 24 98 24q83 0 143 -59.5t60 -143.5q0 -79 -54.5 -137.5t-132.5 -64.5zM834 63z" />
    <glyph glyph-name="uniE63E" unicode="&#xe63e;" 
d="M966 21l-150 149q73 105 73 234q0 112 -55 207.5t-150 150.5t-206.5 55t-206 -55t-149.5 -150.5t-55 -207.5q0 -82 30 -155.5t84 -130.5l63 77q-77 89 -77 208q0 131 92 224t222.5 93t223 -93t92.5 -224q0 -73 -30.5 -136.5t-84.5 -108.5q-29 -24 -64 -41
q-64 -31 -136 -31q-34 0 -66 7l-34 -91q47 -11 96 -11q99 0 187 45q42 22 79 53l145 -145q11 -11 27.5 -9.5t29.5 13.5l15 16q13 12 14 29t-9 28z" />
    <glyph glyph-name="uniE63F" unicode="&#xe63f;" 
d="M659 -79q-28 0 -46 20t-47.5 40t-55.5 20t-56 -20t-47 -39t-46 -19q-12 0 -23 5h-1l-121 67l-1 1q-16 12 -21.5 32t2.5 38q11 26 11 49q0 52 -37.5 89.5t-90.5 37.5h-4h-1q-15 0 -26 12.5t-15 33.5q-11 54 -11 95.5t11 96.5q4 21 15.5 33.5t26.5 11.5h4q53 0 90.5 37.5
t37.5 90.5q0 23 -11 48q-8 19 -2.5 38.5t21.5 31.5l2 1l126 69l2 1q10 5 23 5q28 0 46 -19t47 -38t54 -19t54 19t46 37q18 18 46 18q13 0 23 -5h2l122 -68l1 -1q17 -12 22.5 -31.5t-2.5 -38.5q-11 -25 -11 -48q0 -53 37.5 -90.5t89.5 -37.5h4q16 0 27.5 -12t15.5 -33
q10 -55 10 -96.5t-10 -95.5q-4 -21 -15.5 -33.5t-27.5 -12.5h-4q-52 0 -89.5 -37.5t-37.5 -89.5q0 -24 11 -49q8 -18 2.5 -38t-22.5 -32l-1 -1l-124 -68l-2 -1q-10 -5 -23 -5zM655 -20q2 -1 4 -1l117 64q-16 37 -16 72q0 74 51 127.5t124 57.5q10 49 10 83.5t-10 84.5
q-73 4 -124 57.5t-51 127.5q0 34 16 71l-115 63q-3 0 -5 -1q-17 -18 -42 -35q-53 -38 -99 -38q-47 0 -100 38q-25 18 -43 37q-1 1 -4 1l-119 -65q16 -37 16 -71q0 -74 -51 -127.5t-125 -57.5q-9 -50 -9 -84.5t9 -83.5q74 -4 125 -57.5t51 -127.5q0 -35 -16 -72l112 -62
q3 0 4 1q18 19 43 37q54 40 102 40t102 -41q25 -18 43 -38zM510 215q-70 0 -119.5 49.5t-49.5 119.5t49.5 120t119.5 50t120 -50t50 -120t-50 -119.5t-120 -49.5zM510 496q-46 0 -79 -32.5t-33 -79t33 -79.5t79 -33t79 33t33 79.5t-33 79t-79 32.5z" />
    <glyph glyph-name="uniE640" unicode="&#xe640;" 
d="M486 645q11 11 26 11t26 -11l471 -471q11 -11 11 -26t-11 -26t-26.5 -11t-25.5 11l-471 471q-11 10 -11 25.5t11 26.5zM15 123q-11 11 -11 26.5t11 25.5l471 471q11 11 26 11t26 -11t11 -26t-11 -26l-471 -471q-10 -11 -25.5 -11t-26.5 11v0z" />
    <glyph glyph-name="uniE641" unicode="&#xe641;" 
d="M513.5 892q-103.5 0 -198 -40t-162.5 -108t-108.5 -162.5t-40.5 -198t40.5 -197.5t108.5 -162t162.5 -108.5t197.5 -40.5t197.5 40.5t162.5 108.5t108.5 162t40.5 197.5t-40.5 198t-108.5 162.5t-162 108t-197.5 40zM619 269q25 19 56 19q39 0 66.5 -28t27.5 -66.5
t-27.5 -66.5t-66.5 -28t-66.5 28t-27.5 66v1l-239 115q-24 -15 -51 -15q-39 0 -66.5 27.5t-27.5 66.5t27.5 66.5t66.5 27.5q32 0 58 -20l232 112q0 39 27.5 66.5t66.5 27.5t66.5 -27.5t27.5 -66.5t-27.5 -66.5t-66.5 -27.5q-31 0 -56 19l-234 -113l-1 -4z" />
    <glyph glyph-name="uniE642" unicode="&#xe642;" 
d="M817 245q-45 0 -83 -25q-36 -23 -54 -61l-193 34q3 17 3 34q0 82 -55 142l180 180q25 -10 52 -10q63 0 107.5 45t44.5 108t-44.5 107.5t-107.5 44.5t-107.5 -44.5t-44.5 -107.5t44 -108l-175 -174q-49 29 -107 29q-88 0 -150 -62t-62 -150t62 -150t150 -62q62 0 113 32
q50 32 76 83l198 -35v-3q0 -63 45 -107.5t108 -44.5t107.5 44.5t44.5 107.5t-44.5 108t-107.5 45zM817 180q36 0 61.5 -26t25.5 -62t-25.5 -61.5t-61.5 -25.5t-62 25.5t-26 61.5t26 62t62 26zM277 80q-61 0 -104 43t-43 104t43 104.5t104 43.5t104.5 -43.5t43.5 -104.5
t-43.5 -104t-104.5 -43zM579 692q0 36 26 61.5t62 25.5t61.5 -25.5t25.5 -61.5t-25.5 -62t-61.5 -26t-62 26t-26 62z" />
    <glyph glyph-name="uniE643" unicode="&#xe643;" 
d="M322 390zM256 390.5q0 27.5 19.5 46.5t47 19t46.5 -19t19 -46.5t-19 -47t-46.5 -19.5t-47 19.5t-19.5 47zM510 390zM444 390.5q0 27.5 19 46.5t46.5 19t47 -19t19.5 -46.5t-19.5 -47t-47 -19.5t-46.5 19.5t-19 47zM702 390zM636 390.5q0 27.5 19 46.5t46.5 19t47 -19
t19.5 -46.5t-19.5 -47t-47 -19.5t-46.5 19.5t-19 47z" />
    <glyph glyph-name="uniE644" unicode="&#xe644;" 
d="M955 494q-6 17 -20 28t-32 14l-232 35l-101 209q-8 16 -23.5 26t-34.5 10t-34.5 -10t-23.5 -26l-101 -209l-232 -35q-18 -3 -32 -14t-19 -28q-13 -36 15 -64l169 -170l-39 -235q-6 -39 26 -62q17 -11 38 -11q16 0 31 8l202 109l202 -109q15 -8 31 -8q21 0 38 11
q32 23 26 62l-39 235l170 170q27 28 15 64zM735 305l-28 -28l6 -39l40 -235l-204 109l-37 20l-37 -20l-204 -109l40 235l6 39l-28 28l-169 169l232 34l40 6l18 37l102 211l102 -211l18 -37l40 -6l232 -34z" />
    <glyph glyph-name="uniE645" unicode="&#xe645;" 
d="M955 494q-6 17 -20 28t-32 14l-232 35l-101 209q-8 16 -23.5 26t-34.5 10t-34.5 -10t-23.5 -26l-101 -209l-232 -35q-18 -3 -32 -14t-19 -28q-13 -36 15 -64l169 -170l-39 -235q-6 -39 26 -62q17 -11 38 -11q16 0 31 8l202 109l202 -109q15 -8 31 -8q21 0 38 11
q32 23 26 62l-39 235l170 170q27 28 15 64z" />
    <glyph glyph-name="uniE646" unicode="&#xe646;" 
d="M551 767q93 0 172.5 -46t125.5 -125.5t46 -172.5q0 -10 7.5 -17.5t17.5 -7.5t17 7.5t7 17.5q0 80 -31 153q-29 71 -83.5 125.5t-125.5 83.5q-73 31 -153 31q-10 0 -17.5 -7t-7 -17t7.5 -17.5t17 -7.5zM527 597.5q0 -10.5 7 -17.5t17 -7q62 0 106 -44t44 -106
q0 -10 7.5 -17.5t17.5 -7.5t17 7.5t7 17.5q0 82 -58.5 140.5t-140.5 58.5q-10 0 -17 -7t-7 -17.5zM925 177q-4 4 -11 8l-164 128q-18 18 -44 18q-21 0 -38 -13l-44 -44l-3 -3q-10 -11 -25 -11q-17 0 -28 14l-4 7l-2 -3q-92 67 -157 156l4 1l-7 5q-15 11 -15 28q0 16 12 26
l10 9h-1l37 37h1q12 17 12 38q0 26 -18 45l-127 164q-4 6 -9 11q-18 18 -45 18q-63 0 -120 -61q-59 -65 -59 -148q0 -45 18 -86v-1l1 -3q88 -175 229.5 -316.5t316.5 -229.5l3 -1h1q41 -18 86 -18q83 0 148 59q61 57 61 120v6q-2 23 -19 40zM259 767q6 0 11 -4q0 -1 1 -2
l1 -1q1 -1 2 -3l128 -164q1 -2 4 -5q4 -4 4 -10q0 -3 -2 -6l-43 -43l-1 -1q-26 -24 -26 -60q0 -32 23 -56q0 -1 1 -2q73 -100 176 -175v-1h1q24 -23 57 -23q34 0 58 24l1 1q1 0 1 1l43 43q3 2 7 2q6 0 10 -4l4 -4l164 -128l4 -2q1 -1 3 -2q4 -5 4 -10v-4q-2 -43 -50 -85.5
t-110 -42.5q-35 0 -68 16q-4 2 -7 3q-164 84 -297 216.5t-216 296.5q-1 4 -3 7q-16 33 -16 68q0 64 47 115q19 21 42 33t42 12zM551 379q18 0 31 13t13 31t-13 31t-31 13t-31 -13t-13 -31t13 -31t31 -13z" />
    <glyph glyph-name="uniE647" unicode="&#xe647;" 
d="M524 384v314q0 15 -10.5 25t-25 10t-24.5 -10t-10 -25v-349q0 -14 10 -24.5t25 -10.5q3 0 5 1q3 -1 6 -1h233q15 0 25 10.5t10 25t-10 24.5t-25 10h-209zM512 -128q-139 0 -257 68.5t-186.5 186.5t-68.5 257t68.5 257t186.5 186.5t257 68.5t257 -68.5t186.5 -186.5
t68.5 -257t-68.5 -257t-186.5 -186.5t-257 -68.5zM512 -58q90 0 172 35t141 94t94 141t35 172t-35 172t-94 141t-141 94t-172 35t-172 -35t-141 -94t-94 -141t-35 -172t35 -172t94 -141t141 -94t172 -35z" />
    <glyph glyph-name="uniE648" unicode="&#xe648;" 
d="M512 -128q-139 0 -257 68.5t-186.5 186.5t-68.5 257t68.5 257t186.5 186.5t257 68.5t257 -68.5t186.5 -186.5t68.5 -257t-68.5 -257t-186.5 -186.5t-257 -68.5zM560 656q0 20 -14 34t-34 14t-34 -14t-14 -34v-352q0 -20 14 -34t34 -14t34 14t14 34v352zM512 160
q-20 0 -34 -14t-14 -34t14 -34t34 -14t34 14t14 34t-14 34t-34 14z" />
    <glyph glyph-name="uniE649" unicode="&#xe649;" 
d="M693 549q15 0 35 -2q-23 109 -127.5 181.5t-238.5 72.5q-98 0 -181 -40.5t-132 -111.5t-49 -156q0 -143 145 -245l-36 -109l127 64q6 -2 25 -5.5t27 -5t22.5 -4t26.5 -3t25 -0.5q16 0 34 1q-11 38 -11 76q0 119 89.5 203t218.5 84zM498 647q21 0 33.5 -12.5t12.5 -33
t-12.5 -33t-33.5 -12.5t-37.5 13t-16.5 32.5t16.5 32.5t37.5 13zM245 556q-22 0 -38.5 13t-16.5 32.5t16.5 32.5t38.5 13q20 0 32.5 -12.5t12.5 -33t-12.5 -33t-32.5 -12.5zM1024 266q0 71 -43 132t-113.5 96t-151.5 35q-129 0 -218.5 -77t-89.5 -186t89.5 -186t218.5 -77
q37 0 109 18l99 -54l-27 91q127 95 127 208zM616 312q-13 0 -24.5 11t-11.5 24.5t11.5 25t24.5 11.5q20 0 33 -11t13 -25.5t-13 -25t-33 -10.5zM815 312q-13 0 -24.5 11t-11.5 24.5t11.5 25t24.5 11.5q20 0 33 -11t13 -25t-13 -25t-33 -11z" />
    <glyph glyph-name="uniE64A" unicode="&#xe64a;" 
d="M486 123q11 -11 26 -11t26 11l471 471q11 11 11 26t-11 26t-26.5 11t-25.5 -11l-471 -471q-11 -10 -11 -25.5t11 -26.5zM15 645q-11 -11 -11 -26.5t11 -25.5l471 -471q11 -11 26 -11t26 11t11 26t-11 26l-471 471q-10 11 -25.5 11t-26.5 -11v0z" />
    <glyph glyph-name="uniE64B" unicode="&#xe64b;" 
d="M787 353l-491 -448q-13 -12 -30 -12t-29 12t-12 29t12 29l462 421l-462 421q-12 12 -12 29t12 29t29 12t30 -12l491 -448q13 -12 12 -31q1 -19 -12 -31z" />
    <glyph glyph-name="uniE64C" unicode="&#xe64c;" 
d="M237 353l491 -448q13 -12 30 -12t29 12t12 29t-12 29l-462 421l462 421q12 12 12 29t-12 29t-29 12t-30 -12l-491 -448q-13 -12 -12 -31q-1 -19 12 -31z" />
    <glyph glyph-name="uniE64D" unicode="&#xe64d;" 
d="M856 286q-12 0 -20.5 -8.5t-8.5 -20.5v-174q0 -18 -13 -30.5t-31 -12.5h-494q-18 0 -31 12.5t-13 30.5v174q0 12 -8.5 20.5t-20.5 8.5t-20.5 -8.5t-8.5 -20.5v-178q0 -40 28.5 -68.5t68.5 -28.5h504q40 0 68.5 28.5t28.5 68.5v178q0 12 -8.5 20.5t-20.5 8.5zM974 475
q-3 59 -32 134q-34 88 -84 164l-9 13h-615l-9 -11q-55 -71 -86.5 -134.5t-37 -110.5t-1 -78t16.5 -56q21 -42 59.5 -67.5t83.5 -25.5h5q84 4 145 63q54 -59 133 -59q48 0 88 23q27 15 48 39q80 -64 152 -64q64 0 109 52q37 44 34 118zM671 619q-11 0 -19 -6.5t-10 -17.5h-1
v-181q-37 -49 -98 -49q-28 0 -51.5 11.5t-34 22t-17.5 21.5v170q0 12 -8.5 20.5t-20.5 8.5t-20.5 -8.5t-8.5 -20.5v-169q-44 -57 -118 -60h-4q-25 0 -51 15.5t-40 44.5q-9 19 -12 43.5t2 61.5t31.5 90t71.5 113h556q53 -86 81 -169q17 -54 18 -94q0 -46 -22 -71
q-27 -32 -64 -32q-61 0 -132 65v161v1q0 12 -8 20.5t-20 8.5z" />
    <glyph glyph-name="uniE64E" unicode="&#xe64e;" 
d="M285 805q36 36 81 48q43 12 101 -1q3 0 11 -3q44 -13 67.5 -69t14.5 -130q-10 -86 -54 -131q-33 -32 -71 -26q-8 -2 -12 -6q-3 -2 -2 -8v-1q7 -55 22 -109q14 -50 33 -97q8 -10 12 -11q3 0 4 2q24 22 60 20q34 -3 70 -26.5t67 -63.5q47 -60 56.5 -122.5t-22.5 -94.5h-1
v-1q-3 -3 -7 -6q-38 -41 -88 -55q-76 -21 -156 24t-146 143t-102 228q-42 152 -25 289t87 207zM470 555q32 32 40 101q7 53 -7 95.5t-36 49.5q-3 1 -9 2q-41 11 -78 1q-33 -8 -59 -35q-60 -60 -74 -184.5t24 -262.5q32 -112 89.5 -201t125.5 -132t128 -27q37 11 65 43
q3 2 5 4q2 1 3 2q17 14 6.5 60.5t-44.5 90.5q-24 31 -51 50t-50 20q-14 2 -21 -6q-18 -17 -44 -15q-29 3 -50 35l-2 4q-22 51 -37 105q-16 60 -24 119v6q0 26 17 43q19 19 47 20q4 1 8 0q13 -3 28 12zM646 491q15 15 32 3q31 -21 37.5 -57t-14.5 -66q-6 -8 -16.5 -10t-19 4
t-10.5 16t4 19q9 13 6 28t-15 24q-9 6 -11 16.5t4 19.5q1 2 3 3zM708 551q15 15 32 3q53 -37 65 -100t-25 -116q-6 -9 -16.5 -11t-19 4t-10.5 16.5t4 19.5q25 35 17 77.5t-43 67.5q-9 6 -11 16t4 19q2 2 3 4zM758 640q15 15 32 3q91 -63 111 -171.5t-43 -199.5
q-6 -9 -16 -10.5t-19 4.5t-10.5 16t4.5 19q50 73 34 161t-89 139q-9 6 -11 16.5t4 18.5q1 2 3 4z" />
    <glyph glyph-name="uniE64F" unicode="&#xe64f;" 
d="M252 395h526v-28h-526v28zM501 644h28v-526h-28v526z" />
    <glyph glyph-name="uniE650" unicode="&#xe650;" 
d="M513 357q-113 0 -193 79t-80 190.5t80 190.5t193 79t193 -79t80 -190.5t-80 -190.5t-193 -79zM513 858q-97 0 -166 -68t-69 -163.5t69 -163.5t166 -68t166 68t69 163.5t-69 163.5t-166 68zM607 -128h-189h-69q-23 0 -62.5 1.5t-59.5 4.5t-48.5 8t-42.5 13.5t-29.5 20
t-21.5 27.5t-6 37v18q0 91 45.5 168t124 122t169.5 45h189q92 0 170 -45t123.5 -122t45.5 -168v-18q0 -21 -6.5 -37t-22 -27.5t-30 -20t-43.5 -13.5t-49 -8t-59 -4.5t-62 -1.5h-67zM418 298q-124 0 -212 -86.5t-88 -209.5v-18q0 -13 4.5 -23.5t16 -18t24.5 -13t35.5 -9
t42.5 -5.5t52 -3t58.5 -1.5t66.5 -0.5h189q51 0 77 0.5t68.5 2.5t64.5 6.5t46 12.5t34.5 21t10.5 31v18q0 123 -88.5 209.5t-212.5 86.5h-189z" />
    <glyph glyph-name="uniE651" unicode="&#xe651;" 
d="M512 13q13 0 22.5 9.5t9.5 22.5t-9.5 22.5t-22.5 9.5t-22.5 -9.5t-9.5 -22.5t9.5 -22.5t22.5 -9.5zM823 825q-6 6 -15 6h-592q-9 0 -15 -6t-6 -15v-623v-42v-187q0 -9 6 -15t15 -6h592q9 0 15 6t6 15v187v42v623q0 9 -6 15zM797 799v-64h-570v64h570zM797 -31h-570v160
h570v-160zM227 160v543h570v-543h-570z" />
    <glyph glyph-name="uniE652" unicode="&#xe652;" 
d="M512 317q-28 0 -47.5 -19.5t-19.5 -47.5q0 -29 22 -49v-62q0 -18 13.5 -31t31.5 -13t31.5 13t13.5 31v62q22 20 22 49q0 28 -19.5 47.5t-47.5 19.5zM824 518h-45v111q0 111 -78 189t-189 78t-189 -78t-78 -189v-111h-45q-46 0 -78.5 -33t-32.5 -79v-423q0 -46 32.5 -78.5
t78.5 -32.5h624q46 0 78.5 32.5t32.5 78.5v423q0 46 -32.5 79t-78.5 33zM512 851q92 0 157.5 -65t65.5 -157v-111h-446v111q0 92 65.5 157t157.5 65zM890 -17q0 -27 -19.5 -46.5t-46.5 -19.5h-624q-27 0 -46.5 19.5t-19.5 46.5v423q0 28 19.5 47.5t46.5 19.5h624
q27 0 46.5 -19.5t19.5 -47.5v-423z" />
    <glyph glyph-name="uniE653" unicode="&#xe653;" 
d="M890 769h-756q-9 0 -15.5 -6.5t-6.5 -16.5v-546q0 -9 6.5 -16t15.5 -7h454l207 -178v178h95q9 0 15.5 7t6.5 16v546q0 10 -6.5 16.5t-15.5 6.5zM867 235q0 -13 -19 -13h-98v-1v-121l-141 122v0v0h-433q-19 0 -19 13v477q0 12 19 12h672q19 0 19 -12v-477zM691 431v0h-358
q-9 0 -16 -6.5t-7 -16t7 -16t16 -6.5h358v0q9 0 16 6.5t7 16t-7 16t-16 6.5zM333 538h358v0q9 0 16 6.5t7 15.5t-7 16t-16 7v0h-358q-9 0 -16 -7t-7 -16t7 -15.5t16 -6.5z" />
    <glyph glyph-name="uniE654" unicode="&#xe654;" 
d="M916 832h-806q-30 0 -50.5 -21t-20.5 -50v-582q0 -30 20.5 -50.5t50.5 -20.5h332v-128h-108q-11 0 -18.5 -7.5t-7.5 -18t7.5 -18t18.5 -7.5h358q11 0 18.5 7.5t7.5 18t-7.5 18t-18.5 7.5h-109v128h333q29 0 49.5 20.5t20.5 50.5v582q0 29 -20.5 50t-49.5 21zM110 780h806
q8 0 13.5 -5.5t5.5 -13.5v-467h-845v467q0 8 6 13.5t14 5.5zM532 -20h-38v128h38v-128zM916 159h-806q-8 0 -14 6t-6 14v64h845v-64q0 -8 -5.5 -14t-13.5 -6z" />
    <glyph glyph-name="uniE655" unicode="&#xe655;" 
d="M65 524h894v41h-894v-41zM65 281h894v40h-894v-40zM65 37h894v41h-894v-41z" />
    <glyph glyph-name="uniE656" unicode="&#xe656;" 
d="M832 772l-7 11h-610l-7 -9q-55 -70 -86 -133t-36.5 -109.5t-1 -76.5t16.5 -55q20 -41 57.5 -65.5t79.5 -24.5h6q85 4 145 65q53 -61 132 -61q82 0 136 64q80 -65 152 -65q62 0 105 49q25 30 31.5 72t-4.5 88t-25 86.5t-36 80.5t-31.5 56.5t-16.5 26.5zM834 283
q-10 0 -17 -7t-7 -17v0v-173q0 -20 -14 -34.5t-34 -14.5h-207h-288q-20 0 -34 14.5t-14 34.5v173q0 10 -7 17t-17 7t-17 -7t-7 -17v-178q0 -38 27 -65t64 -27h505q37 0 64 27t27 65v178q0 10 -7 17t-17 7z" />
    <glyph glyph-name="uniE657" unicode="&#xe657;" 
d="M229 675l21 14l254 -368h16l254 368l21 -14l-244 -354h272v-26h-290l-7 -11v-129h297v-25h-297v-219h-27v218h-298v27h298v127l-9 13h-289v25h272z" />
    <glyph glyph-name="uniE658" unicode="&#xe658;" 
d="M269 833v-47h-61q-21 0 -37.5 -13t-21.5 -33q-2 -9 -2 -19v-674q0 -30 18 -47.5t47 -17.5h601q30 0 47.5 17.5t17.5 47.5v673q0 30 -17.5 48t-47.5 18h-56v47h14q75 0 81 -1q32 -3 53 -27t21 -57v-322v-404q0 -38 -25 -63t-63 -25h-651q-38 0 -62.5 25t-24.5 63v723
q0 39 24.5 63.5t63.5 24.5h81zM513 494h-250q-11 0 -14 3.5t-3 14.5v17q0 12 12 12h6h497q12 0 15.5 -3t3.5 -16v-15q-1 -13 -13 -13h-7h-247zM512 226h-250q-10 0 -13 3.5t-3 13.5q-1 14 0 17q0 13 12 14h7h495q13 0 16.5 -3.5t3.5 -16.5v-13q0 -8 -3.5 -11.5t-11.5 -3.5
h-253zM522 786h-129q-9 0 -12.5 3t-3.5 12v19q1 13 15 13h33h225q11 0 14.5 -3t3.5 -14v-16q0 -14 -14 -14h-132z" />
    <glyph glyph-name="uniE659" unicode="&#xe659;" 
d="M827 141l-64 85l-1 1q-2 2 -2 6v42h-34v-42q0 -17 11 -29l64 -85l1 -1q2 -3 2 -6v-42q0 -9 -8 -9h-284h-284q-8 0 -8 9v42q0 3 2 6l1 1l64 85q11 12 11 29v161q0 98 60 164q29 32 67 48q40 18 87 18t87 -18q38 -17 67 -48q60 -66 60 -164v-40h34v40q0 111 -69 187
q-41 45 -98 64q-4 31 -26 52q-24 21 -55.5 21t-54.5 -21t-26 -52q-57 -19 -98 -64q-69 -76 -69 -187v-161q0 -4 -2 -6l-1 -1l-64 -85q-12 -12 -12 -29v-42q0 -18 12.5 -30.5t30.5 -12.5h284h284q17 0 29.5 12.5t12.5 30.5v42q0 17 -11 29zM512 684q15 0 26.5 -8t17.5 -21
q-22 4 -44 4t-44 -4q6 13 17.5 21t26.5 8zM618.5 5q-7.5 8 -18.5 8h-176q-11 0 -18.5 -8.5t-6.5 -19.5q4 -43 36 -73q33 -30 77 -30t77 30q32 30 37 73q0 12 -7.5 20zM566 -63q-23 -21 -54 -21t-54 21q-19 17 -24 42h156q-5 -25 -24 -42z" />
    <glyph glyph-name="uniE65A" unicode="&#xe65a;" 
d="M903 -83h-782q-31 0 -53.5 22.5t-22.5 53.5v782q0 31 22.5 53.5t53.5 22.5h253q6 0 11 -4.5t5 -11t-5 -11.5t-11 -5h-253q-18 0 -31 -13t-13 -31v-782q0 -18 13 -31t31 -13h782q18 0 31 13t13 31v782q0 18 -13 31t-31 13h-253q-6 0 -11 5t-5 11.5t5 11t11 4.5h252
q32 0 54.5 -22.5t22.5 -53.5v-782q0 -31 -22.5 -53.5t-53.5 -22.5zM512 348q-54 0 -105 18t-93.5 52.5t-68 92t-25.5 129.5q0 7 4.5 11.5t11.5 4.5t11.5 -4.5t4.5 -11.5q0 -64 23 -115.5t60.5 -82t83 -46.5t94 -16t93.5 16t83 46.5t60.5 82t22.5 115.5q0 7 4.5 11.5
t11.5 4.5t11.5 -4.5t4.5 -11.5q0 -72 -25.5 -129.5t-68 -92t-93.5 -52.5t-105 -18zM236 640zM199 640q0 15 11 26t26 11t26 -11t11 -26t-11 -26t-26 -11t-26 11t-11 26zM788 640zM751 640q0 15 11 26t26.5 11t26 -11t10.5 -26t-10.5 -26t-26 -11t-26.5 11t-11 26z" />
    <glyph glyph-name="uniE65B" unicode="&#xe65b;" 
d="M896 460v1v1v1l-1 1v0v1v1v1l-1 1v1v1h-1v1v1v0q-1 0 -1 1v1v0q-1 0 -1 1l-1 1q0 1 -0.5 1t-0.5 1v0l-1 1v0l-2 2v1h-1l-1 1v0q-1 0 -1 1h-1v1h-1h-1v1h-1l-1 1v0h-1l-1 1v0h-1h-1l-1 1h-1h-1h-1v1h-1h-1v0h-1h-1h-2h-197q-13 0 -22.5 -9.5t-9.5 -22.5t9.5 -22.5
t22.5 -9.5h120l-3 -2l-178 -178v-1l-40 -40l-128 127q-9 10 -22.5 10t-23.5 -10l-231 -231q-10 -9 -10 -22.5t9.5 -23t23 -9.5t22.5 10l209 209l128 -128q9 -9 23 -9q13 0 23 9l150 150q1 1 1 2l90 90l2 1v-120q0 -13 9 -22.5t22.5 -9.5t23 9.5t9.5 22.5v193v1v0v1v1v4z" />
    <glyph glyph-name="uniE65C" unicode="&#xe65c;" 
d="M512 384q-72 0 -127 46t-67 116q18 13 18 36q0 18 -13 31t-31 13t-31 -13t-13 -31q0 -28 26 -40q14 -86 81.5 -144t156.5 -58t156.5 58t81.5 144q26 12 26 40q0 18 -13 31t-31 13t-31 -13t-13 -31q0 -23 18 -36q-12 -70 -67 -116t-127 -46zM820 780h-22h-154h-3v-1
q-8 -1 -13.5 -7t-5.5 -14.5t5.5 -14.5t13.5 -7h179q18 0 31 -13t13 -31v-616q0 -18 -13 -31t-31 -13h-616q-18 0 -31 13t-13 31v616q0 18 13 31t31 13h157q8 1 13.5 7t5.5 14.5t-5.5 14.5t-13.5 7v1h-3h-154q-36 -1 -62 -26.5t-26 -61.5v-616q0 -36 26 -62t62 -26h616
q36 0 62 26t26 62v616q0 36 -26 62t-62 26zM820 780z" />
    <glyph glyph-name="uniE65D" unicode="&#xe65d;" 
d="M112 391q52 -58 108 -115t142.5 -142t111.5 -111q45 -45 86 -4q29 29 115.5 114.5t144 145t111.5 118.5q47 51 52 119.5t-28 131.5q-61 132 -228 133q-30 2 -58 -6t-49 -19.5t-45.5 -33t-39.5 -38.5t-40 -44.5t-39 -42.5q-7 -7 -6 -17t10 -18q18 -14 36 3q8 7 80 77
q24 24 39 37t40 26.5t51 17.5q136 19 197 -96q29 -52 19 -113t-56 -109q-51 -53 -154.5 -156t-153.5 -155q-16 -16 -29.5 -19.5t-24.5 2.5t-26 21q-51 52 -152.5 154t-150.5 153q-57 58 -62.5 127t41.5 126q46 57 115 66t138 -33q1 -1 7.5 -5t8.5 -5t7.5 -3.5t8 -2.5t7 -0.5
t7.5 2t6.5 6t7.5 9.5q4 8 4.5 14.5t-4 11.5t-8.5 8.5t-11.5 8t-10.5 6.5q-71 50 -164.5 39.5t-151.5 -74.5q-63 -68 -66.5 -157.5t57.5 -157.5z" />
    <glyph glyph-name="uniE65E" unicode="&#xe65e;" 
d="M512 -91q-7 0 -12 5l-392 431q-77 78 -77 190q0 111 76 189.5t184 78.5q42 0 81 -14q6 -2 9 -8t1 -12t-8 -9t-12 -1q-35 12 -71 12q-94 0 -161 -69t-67 -167q0 -99 69 -168l380 -418l380 417q70 70 70 169q0 98 -67 167t-162 69q-67 0 -123 -38q-10 -6 -31 -23t-83.5 -81
t-127.5 -147q-10 -13 -23 -3t-3 22q42 54 83.5 100.5t68.5 73t52 48.5t33 27.5t13 9.5q64 43 141 43q108 0 184 -78.5t76 -189.5q0 -112 -78 -191l-391 -430q-5 -5 -12 -5z" />
    <glyph glyph-name="uniE65F" unicode="&#xe65f;" 
d="M609 -31q-6 0 -10 4l-201 176h-270q-33 0 -56.5 23.5t-23.5 56.5v475q0 33 23.5 56.5t56.5 23.5h768q33 0 56.5 -23.5t23.5 -56.5v-475q0 -33 -23.5 -56.5t-56.5 -23.5h-271v-164q0 -10 -9 -14q-3 -2 -7 -2zM128 752q-20 0 -34 -14t-14 -34v-475q0 -20 14 -34t34 -14h276
q6 0 11 -4l178 -156v144q0 7 5 11.5t11 4.5h287q20 0 34 14t14 34v475q0 20 -14 34t-34 14h-768zM651 548h-278q-6 0 -11 4.5t-5 11.5t5 11.5t11 4.5h278q6 0 11 -4.5t5 -11.5t-5 -11.5t-11 -4.5zM651 419h-278q-6 0 -11 4.5t-5 11t5 11.5t11 5h278q6 0 11 -5t5 -11.5
t-5 -11t-11 -4.5z" />
    <glyph glyph-name="uniE660" unicode="&#xe660;" 
d="M48 83q-7 0 -11 4q-12 12 0 23l274 275q11 10 23 0l177 -163l435 458q11 12 22.5 1t0.5 -23l-445 -469q-11 -11 -23 -1l-178 163l-264 -264q-4 -4 -11 -4zM964 350q-6 0 -10.5 4.5t-4.5 10.5v290h-290q-6 0 -10.5 4.5t-4.5 10.5t4.5 10.5t10.5 4.5h305q6 0 10.5 -4.5
t4.5 -10.5v-305q0 -6 -4.5 -10.5t-10.5 -4.5z" />
    <glyph glyph-name="uniE661" unicode="&#xe661;" 
d="M230.5 273q-6.5 0 -11.5 5t-5 11v185q0 123 87.5 210t210.5 87t210 -87t87 -210v-23q0 -7 -4.5 -11.5t-11 -4.5t-11.5 4.5t-5 11.5v23q0 110 -77.5 187.5t-187.5 77.5t-188 -77.5t-78 -187.5v-185q0 -6 -4.5 -11t-11 -5zM793.5 273q-6.5 0 -11.5 5t-5 11v56q0 6 5 11
t11.5 5t11 -5t4.5 -11v-56q0 -6 -4.5 -11t-11 -5zM512 81h-346q-5 0 -9 4q-15 11 -20 29t-2.5 33t8.5 28q8 14 26.5 44.5t32.5 54.5l15 24l27 -17l-6 -9l-15 -25t-18.5 -31t-19 -31.5t-14.5 -24.5v0q-12 -32 1 -47h340q6 0 11 -4.5t5 -11t-5 -11.5t-11 -5zM857 81h-345
q-7 0 -11.5 5t-4.5 11.5t4.5 11t11.5 4.5h339q7 8 6.5 20.5t-2.5 19t-3 9.5q-35 61 -72 119q-9 14 4.5 22t22.5 -5q53 -85 73 -122q7 -14 9.5 -29t-2.5 -33t-20 -29q-5 -4 -10 -4zM579 733q-7 0 -11.5 4.5t-4.5 11.5q0 21 -15 36t-36 15t-36 -15t-15 -36q0 -7 -5 -11.5
t-11.5 -4.5t-11 4.5t-4.5 11.5q0 34 24 58.5t58.5 24.5t59 -24.5t24.5 -58.5q0 -7 -4.5 -11.5t-11.5 -4.5zM512 -92q-61 0 -104.5 43.5t-43.5 104.5q0 7 4.5 11.5t11.5 4.5h264q6 0 11 -4.5t5 -11.5q0 -61 -43.5 -104.5t-104.5 -43.5zM397 40q6 -43 38.5 -71.5t76 -28.5
t76.5 28.5t39 71.5h-230z" />
    <glyph glyph-name="uniE662" unicode="&#xe662;" 
d="M878 369h-732q-7 0 -11.5 4.5t-4.5 11t4.5 11.5t11.5 5h732q7 0 11.5 -5t4.5 -11.5t-4.5 -11t-11.5 -4.5zM878 162h-732q-7 0 -11.5 5t-4.5 11.5t4.5 11t11.5 4.5h732q7 0 11.5 -4.5t4.5 -11t-4.5 -11.5t-11.5 -5zM512 -108q-7 0 -11.5 4.5t-4.5 11.5v477q0 6 4.5 11
t11.5 5t11.5 -5t4.5 -11v-477q0 -7 -4.5 -11.5t-11.5 -4.5zM512 369q-7 0 -12 5l-390 456q-10 12 2 22.5t23 -2.5l389 -455q11 -12 -2 -23q-4 -3 -10 -3zM512 369q-6 0 -10 3q-13 11 -2 23l389 455q11 12 23 2t2 -22l-390 -456q-5 -5 -12 -5z" />
    <glyph glyph-name="uniE663" unicode="&#xe663;" 
d="M468 197.5q-11 11.5 0 22.5l457 458q14 14 14 34t-14 34l-40 40q-14 14 -34 14t-34 -14l-457 -457q-12 -12 -23 -0.5t0 22.5l457 458q24 23 57 23t56 -23l41 -41q23 -23 23 -56.5t-23 -56.5l-457 -457q-12 -12 -23 -0.5zM468 198l-131 131q-11 11 0 22.5t23 -0.5
l131 -131q11 -11 0 -22q-12 -12 -23 0zM878 608l-131 131q-11 11 0 22.5t23 0.5l131 -131q11 -12 0 -23q-5 -5 -11.5 -5t-11.5 5zM300 161q-6 6 -5 14l38 168q1 7 6.5 10.5t12 2t10 -7t2.5 -11.5l-37 -169q-2 -6 -7.5 -9.5t-11.5 -2.5q-5 1 -8 5zM300 161q-4 3 -5 7
q-1 7 2.5 12.5t10.5 7.5l168 37q6 1 12 -2.5t7 -10t-2.5 -12t-9.5 -7.5l-168 -37q-9 -2 -15 5zM898 -82h-772q-33 0 -56.5 23.5t-23.5 56.5v772q0 33 23.5 56.5t56.5 23.5h508q7 0 11.5 -4.5t4.5 -11.5t-4.5 -11.5t-11.5 -4.5h-508q-20 0 -34 -14t-14 -34v-772q0 -20 14 -34
t34 -14h772q20 0 34 14t14 34v496q0 7 4.5 11.5t11.5 4.5t11.5 -4.5t4.5 -11.5v-496q0 -33 -23.5 -56.5t-56.5 -23.5z" />
    <glyph glyph-name="uniE664" unicode="&#xe664;" 
d="M512 -67q-92 0 -175.5 36t-143.5 96.5t-96 144t-36 175t36 175t96 144t143.5 96t175.5 35.5q115 0 215.5 -54.5t163.5 -151.5q9 -14 -4.5 -22.5t-22.5 4.5q-58 90 -151.5 141t-200.5 51q-114 0 -210.5 -56t-152.5 -152.5t-56 -210t56 -210t152.5 -153t210.5 -56.5
q112 0 206.5 53.5t151.5 146t61 204.5q0 6 5 10.5t11 4.5q7 0 11.5 -5t4.5 -12q-5 -119 -66 -219t-163 -157.5t-222 -57.5zM893 585h-190q-7 0 -11.5 4.5t-4.5 11t4.5 11.5t11.5 5h174v175q0 6 5 11t11.5 5t11 -5t4.5 -11v-191q0 -7 -4.5 -11.5t-11.5 -4.5z" />
    <glyph glyph-name="uniE665" unicode="&#xe665;" 
d="M428.5 298q-100.5 0 -171.5 71t-71 171.5t71 171.5t171.5 71t172 -71t71.5 -171.5t-71.5 -171.5t-172 -71zM429 751q-87 0 -149 -61.5t-62 -148.5t62 -149t149 -62t149 62t62 149t-62 148.5t-149 61.5zM801 -50q-6 0 -11 4.5t-5 10.5q-10 140 -113 236.5t-243 96.5
t-243.5 -96.5t-112.5 -236.5q-1 -6 -6 -10.5t-11 -4.5q-7 1 -11.5 6t-3.5 11q7 101 60.5 184t140.5 131t187 48t187 -48t140.5 -131t60.5 -184q0 -6 -4 -11t-11 -6h-1zM613 300q-50 0 -95 21q-6 3 -8 9t0.5 12t9 8.5t12.5 -0.5q38 -18 81 -18q80 0 137 57t57 137.5
t-57 137.5t-137 57q-28 0 -54 -7q-6 -2 -12 1.5t-7.5 9.5t1.5 12t9 8q31 8 63 8q93 0 159.5 -66.5t66.5 -160t-66.5 -160t-159.5 -66.5zM958 -23q-6 0 -10.5 4.5t-5.5 10.5q-9 130 -104.5 219t-224.5 89q-47 0 -90 -12q-7 -2 -12.5 1.5t-7.5 9.5t1.5 12t9.5 8q48 13 99 13
q142 0 246.5 -97.5t114.5 -240.5q0 -6 -4 -11t-11 -6h-1z" />
    <glyph glyph-name="uniE666" unicode="&#xe666;" horiz-adv-x="1117" 
d="M566 239q-6 0 -11 4l-403 404q-11 11 -0.5 21.5t21.5 -0.5l393 -393l393 393q10 11 21 0t0 -21l-403 -404q-5 -4 -11 -4zM976 -6h-820q-34 0 -57.5 24t-23.5 58v544q0 33 23.5 57t57.5 24h820q33 0 57 -24t24 -57v-144q0 -8 -5.5 -13t-13 -5t-12.5 5t-5 13v144
q0 18 -13 31.5t-32 13.5h-820q-19 0 -32 -13.5t-13 -31.5v-544q0 -19 13 -32.5t32 -13.5h820q19 0 32 13.5t13 32.5v196q0 8 5 13t12.5 5t13 -5t5.5 -13v-196q0 -34 -24 -58t-57 -24zM571 236q-7 0 -13 5l-433 419q-5 5 -5 12.5t5 13t12.5 5.5t12.5 -5l421 -407l409 414
q5 5 12.5 5.5t12.5 -5t5 -13t-5 -12.5l-421 -427q-6 -5 -13 -5z" />
    <glyph glyph-name="uniE667" unicode="&#xe667;" 
d="M512 -90q-96 0 -184 37.5t-151.5 101t-101 151.5t-37.5 184t37.5 184t101 151.5t151.5 101t184 37.5t184 -37.5t151.5 -101t101 -151.5t37.5 -184t-37.5 -184t-101 -151.5t-151.5 -101t-184 -37.5zM512 826q-90 0 -171.5 -35t-141 -94.5t-94.5 -141t-35 -171.5t35 -171.5
t94.5 -141t141 -94.5t171.5 -35t171.5 35t141 94.5t94.5 141t35 171.5t-35 171.5t-94.5 141t-141 94.5t-171.5 35zM512 274q-7 0 -11.5 4.5t-4.5 11.5v37q-1 5 2 11t18 21.5t46 41.5q24 25 24 60.5t-25 60.5t-61 25t-61 -25t-25 -61q0 -2 1 -7l-16 -5l-16 -2l16 2l-16 1
q-1 7 -1 11q0 49 34.5 83.5t83.5 34.5t83.5 -34.5t34.5 -83.5t-35 -83q-44 -39 -55 -52v-36q0 -7 -4.5 -11.5t-11.5 -4.5zM512 212zM489 211.5q0 9.5 6.5 16.5t16.5 7t16.5 -7t6.5 -16.5t-6.5 -16t-16.5 -6.5t-16.5 6.5t-6.5 16zM512 290z" />
    <glyph glyph-name="uniE668" unicode="&#xe668;" 
d="M512 229q-63 0 -108 44t-47 107q-1 64 43 110.5t108 48.5h4q63 0 108 -43.5t47 -107.5q1 -64 -43 -110.5t-108 -48.5h-4zM512 507q-54 -2 -89 -38.5t-34 -87.5q2 -50 37.5 -85t85.5 -35v-16l3 16q51 2 86 39t34 87q-2 51 -37.5 85.5t-85.5 34.5zM238 20l-185 207z
M639 836l-278 -8zM504 744q-45 0 -83.5 19.5t-65.5 55.5q-10 13 3 22.5t23 -3.5q22 -30 55.5 -46.5t71.5 -15.5t70.5 19t53.5 50q4 5 10.5 6.5t11.5 -2.5q13 -9 4 -22q-25 -38 -64 -60t-85 -23h-5zM55 465q-14 0 -16 14q0 7 4 12t10 6q38 5 68.5 25.5t49.5 54.5q38 70 2 141
q-3 6 -1 12.5t8 9.5t12.5 0.5t9.5 -8.5q20 -41 19.5 -85.5t-22.5 -85t-59 -65.5t-83 -31h-2zM199 21q-3 0 -6 1q-6 3 -8.5 9t0.5 12q31 74 -10 142q-20 32 -52 51t-70 21q-6 1 -10.5 6t-4.5 11q1 15 17 15q46 -2 84.5 -25.5t62.5 -62.5t27 -83.5t-15 -86.5q-4 -10 -15 -10z
M379 -84q-5 0 -9 3q-13 9 -4 22q25 38 64 60t85 23q45 2 85.5 -18t68.5 -57q10 -13 -3 -22q-6 -4 -12.5 -3t-10.5 6q-23 31 -56.5 47.5t-70.5 14.5q-80 -2 -124 -69q-4 -7 -13 -7zM837 27q-10 0 -15 9q-20 41 -19.5 85.5t22.5 85t59 65.5t83 31q6 1 11.5 -3.5t6 -11
t-3.5 -11.5t-10 -6q-38 -5 -68.5 -25.5t-49.5 -53.5q-38 -71 -2 -142q3 -6 1 -12t-8 -9q-4 -2 -7 -2zM970 479h-1q-46 3 -84.5 26t-62.5 62t-27 83.5t15 86.5q3 6 9 8.5t12 0t8.5 -8.5t-0.5 -12q-31 -74 11 -142q19 -32 51 -51t70 -21q6 -1 10.5 -6t4.5 -11q-1 -7 -5.5 -11
t-10.5 -4zM187 709q-9 0 -14 8q-7 14 6 22l181 103q6 3 12 1.5t10 -7.5q8 -14 -6 -22l-181 -103q-3 -2 -8 -2zM54 257q-6 0 -11 5t-5 11l1 208q0 7 5 11.5t11 4.5q7 0 11.5 -4.5t4.5 -11.5l-1 -208q0 -6 -4.5 -11t-11.5 -5zM379 -84q-4 0 -8 2l-180 105q-5 4 -7 10t1.5 12
t10 7.5t11.5 -1.5l180 -105q6 -3 7.5 -9.5t-1.5 -12.5q-5 -8 -14 -8zM656 -76q-9 0 -14 8q-8 14 6 22l181 103q14 8 22 -6t-6 -22l-181 -103q-3 -2 -8 -2zM969 271q-7 0 -11.5 4.5t-4.5 11.5l1 208q0 6 4.5 11t11.5 5t11.5 -5t4.5 -11l-1 -208q0 -7 -5 -11.5t-11 -4.5z
M825 715q-5 0 -8 2l-180 105q-6 3 -7.5 9.5t2 12.5t9.5 7.5t12 -1.5l180 -105q5 -3 7 -9.5t-2 -12.5q-4 -8 -13 -8zM187 709q-9 0 -14 8q-7 14 6 22l181 103q6 3 12 1.5t10 -7.5q8 -14 -6 -22l-181 -103q-3 -2 -8 -2zM54 257q-6 0 -11 5t-5 11l1 208q0 7 5 11.5t11 4.5
q7 0 11.5 -4.5t4.5 -11.5l-1 -208q0 -6 -4.5 -11t-11.5 -5z" />
    <glyph glyph-name="uniE669" unicode="&#xe669;" 
d="M512 -90q-96 0 -184 37.5t-151.5 101t-101 151.5t-37.5 184t37.5 184t101 151.5t151.5 101t184 37.5t184 -37.5t151.5 -101t101 -151.5t37.5 -184t-37.5 -184t-101 -151.5t-151.5 -101t-184 -37.5zM512 826q-90 0 -171.5 -35t-141 -94.5t-94.5 -141t-35 -171.5t35 -171.5
t94.5 -141t141 -94.5t171.5 -35t171.5 35t141 94.5t94.5 141t35 171.5t-35 171.5t-94.5 141t-141 94.5t-171.5 35zM632 382h-240q-7 0 -11.5 4.5t-4.5 11.5t4.5 11.5t11.5 4.5h240q7 0 11.5 -4.5t4.5 -11.5t-4.5 -11.5t-11.5 -4.5zM632 264h-240q-7 0 -11.5 4.5t-4.5 11.5
t4.5 11.5t11.5 4.5h240q7 0 11.5 -4.5t4.5 -11.5t-4.5 -11.5t-11.5 -4.5zM512 122q-7 0 -11.5 4.5t-4.5 11.5v260q0 7 4.5 11.5t11.5 4.5t11.5 -4.5t4.5 -11.5v-260q0 -7 -4.5 -11.5t-11.5 -4.5zM512 382q-7 0 -12 5l-146 162q-11 12 1 23q5 4 11.5 4t11.5 -5l146 -162
q4 -5 4 -11.5t-5 -11.5q-5 -4 -11 -4zM512 382q-6 0 -11 4q-5 5 -5 11.5t4 11.5l146 162q11 12 23 1t1 -23l-146 -162q-5 -5 -12 -5z" />
    <glyph glyph-name="uniE66A" unicode="&#xe66a;" 
d="M957 -36h-890q-7 0 -11.5 4.5t-4.5 11.5v808q0 7 4.5 11.5t11 4.5t11.5 -4.5t5 -11.5v-792h874q7 0 11.5 -5t4.5 -11.5t-4.5 -11t-11.5 -4.5zM164 120q-6 0 -10 3q-12 10 -3 23l215 271q10 12 22 3l182 -128l331 286q12 10 22.5 -2t-1.5 -22l-341 -295q-9 -8 -19 -1
l-180 127l-206 -259q-4 -6 -12 -6z" />
    <glyph glyph-name="uniE66B" unicode="&#xe66b;" 
d="M564 13q-121 0 -222 65q-13 9 -5 22q4 6 10.5 7t12.5 -2q93 -60 204 -60q102 0 189.5 51t138 138t50.5 190t-50.5 190t-138 138t-190 51t-190 -51t-138 -138t-50.5 -190q0 -42 9 -82q1 -7 -2.5 -12.5t-10 -7t-12 2t-6.5 10.5q-10 43 -10 89q0 111 55 206t149.5 150
t206 55t206 -55t149.5 -150t55 -206t-55 -206t-149.5 -150t-205.5 -55zM409 483zM369 482.5q0 16.5 11.5 28.5t28 12t28.5 -12t12 -28.5t-12 -28t-28.5 -11.5t-28 11.5t-11.5 28zM700 483zM660 482.5q0 16.5 11.5 28.5t28 12t28.5 -12t12 -28.5t-12 -28t-28.5 -11.5
t-28 11.5t-11.5 28zM660 251h-192q-7 0 -11.5 4.5t-4.5 11t4.5 11.5t11.5 5h192q6 0 11 -5t5 -11.5t-5 -11t-11 -4.5zM278 -95h-136q-6 0 -11 4.5t-5 11.5l-3 104q-14 15 -28.5 34t-30.5 58t-14 77q6 84 97 149q24 14 52 14q33 0 55 -24q35 -37 35 -130q27 19 55 11
q4 -1 10 -4t17 -14.5t15 -27.5q15 -64 -92 -172v-75q0 -6 -5 -11t-11 -5zM158 -63h104v66q0 7 4 11q100 99 88 147q-1 8 -6.5 13.5t-9 7t-4.5 1.5q-13 5 -27.5 -7.5t-20.5 -24.5q-7 -11 -19 -7q-12 3 -11 16q8 116 -25 151q-13 14 -32 14q-8 0 -17 -2.5t-13 -4.5t-5 -2
q-78 -55 -82 -124q-1 -23 5.5 -46.5t16 -40.5t21 -32t17.5 -21.5t8 -8.5q5 -4 5 -11z" />
    <glyph glyph-name="uniE66C" unicode="&#xe66c;" 
d="M970 510l-65 167h-393h-393l-65 -167q-12 -25 -12 -50q0 -49 34.5 -83.5t83 -34.5t83 34.5t34.5 83.5q0 -49 34.5 -83.5t83 -34.5t83 34.5t34.5 82.5q0 -48 34.5 -82.5t83 -34.5t83 34.5t34.5 83.5q0 -49 34.5 -83.5t83 -34.5t83 34.5t34.5 83.5q0 25 -12 50zM887 745
h-750q-13 0 -22.5 9.5t-9.5 23t9.5 22.5t22.5 9h750q13 0 22.5 -9t9.5 -22.5t-9.5 -23t-22.5 -9.5zM887 -32h-750q-13 0 -22.5 9.5t-9.5 22.5v263q0 13 9.5 22.5t23 9.5t22.5 -9.5t9 -22.5v-231h686v231q0 13 9 22.5t22.5 9.5t23 -9.5t9.5 -22.5v-263q0 -13 -9.5 -22.5
t-22.5 -9.5z" />
    <glyph glyph-name="uniE66D" unicode="&#xe66d;" 
d="M512 370zM338 370q0 72 51 123t123 51t123 -51t51 -123t-51 -122.5t-123 -50.5t-123 50.5t-51 122.5zM864 679h-92l-102 126h-316l-102 -126h-92q-54 0 -93 -39t-39 -94v-380q0 -55 39 -94t93 -39h704q55 0 93.5 39t38.5 94v380q0 55 -38.5 94t-93.5 39zM512 162
q-86 0 -147 61t-61 147.5t61 147.5t147 61t147 -61t61 -147.5t-61 -147.5t-147 -61zM909 565h-117v30h117v-30z" />
    <glyph glyph-name="uniE66E" unicode="&#xe66e;" 
d="M476 -26q-81 0 -157 29q-12 5 -17.5 17t-1 24.5t17 18t24.5 0.5q64 -25 134 -25q102 0 188.5 50.5t137 137t50.5 188.5t-50.5 189t-137 137t-188.5 50t-188.5 -50t-137 -137t-50.5 -189q0 -120 70 -218q8 -11 5.5 -24t-13 -20.5t-24 -5.5t-20.5 13q-82 114 -82 255
q0 90 35 171.5t94 140t140.5 93.5t171 35t171 -35t140 -93.5t93.5 -140t35 -171t-35 -171t-94 -140.5t-140 -94t-171 -35zM921 -109q-13 0 -23 10l-179 181q-9 9 -9 22.5t9.5 23t22.5 9t22 -9.5l180 -181q9 -10 9 -23t-9.5 -22.5t-22.5 -9.5z" />
    <glyph glyph-name="uniE66F" unicode="&#xe66f;" 
d="M879 -85h-734q-39 0 -67.5 28t-28.5 68v656q0 39 28.5 67.5t67.5 28.5h734q39 0 67.5 -28.5t28.5 -67.5v-656q0 -40 -28.5 -68t-67.5 -28zM145 699q-13 0 -22.5 -9.5t-9.5 -22.5v-656q0 -14 9.5 -23t22.5 -9h734q13 0 22.5 9t9.5 23v656q0 13 -9.5 22.5t-22.5 9.5h-734z
M240 507h133v-94h-133v94zM445 507h134v-94h-134v94zM651 507h133v-94h-133v94zM240 371h133v-94h-133v94zM445 371h134v-94h-134v94zM651 371h133v-94h-133v94zM240 234h133v-93h-133v93zM445 234h134v-93h-134v93zM512 608q-13 0 -22.5 9.5t-9.5 22.5v181q0 14 9.5 23
t22.5 9t22.5 -9t9.5 -23v-181q0 -13 -9.5 -22.5t-22.5 -9.5zM280 608q-13 0 -22.5 9.5t-9.5 22.5v181q0 14 9.5 23t22.5 9t22.5 -9t9.5 -23v-181q0 -13 -9.5 -22.5t-22.5 -9.5zM744 608q-13 0 -22.5 9.5t-9.5 22.5v181q0 14 9.5 23t22.5 9t22.5 -9t9.5 -23v-181
q0 -13 -9.5 -22.5t-22.5 -9.5z" />
    <glyph glyph-name="uniE670" unicode="&#xe670;" 
d="M418 243q-66 68 -89 137q-3 2 -7 6t-15 16t-20 23.5t-18.5 26.5t-13.5 28t-1 25.5t15 20.5l17 -6l-2 20l-2 2l-6 4q-5 3 -6.5 5.5t-3 6.5t2.5 7t10 9t15 22.5t9 31.5q1 1 0 8t1.5 21.5t6.5 29.5t15 33t27 31q3 3 9 8t27 16t45.5 17.5t65 5.5t84.5 -13q8 -4 20.5 -11
t36.5 -27t33 -39q1 -2 3.5 -5.5t10.5 -15.5t14 -24t14 -30.5t11 -35t5 -37.5t-4 -38q12 9 24 0q5 -4 6 -25.5t-2 -47t-15.5 -46.5t-31.5 -23q-35 -109 -72 -146q86 -20 151.5 -78.5t96.5 -140.5q62 69 96.5 155.5t34.5 182.5q0 103 -40 196t-107.5 160.5t-160.5 107.5
t-195.5 40t-196 -40t-161 -107.5t-107.5 -160.5t-40 -196q0 -181 116 -321q39 88 117.5 145.5t176.5 65.5z" />
    <glyph glyph-name="uniE671" unicode="&#xe671;" 
d="M916 -50q-7 0 -11 5l-808 836q-12 11 -0.5 22.5t23.5 -0.5l808 -836q11 -12 -1 -23q-5 -4 -11 -4zM108 -50q-6 0 -11 4q-12 12 0 23l808 836q10 12 22 0.5t1 -22.5l-809 -836q-4 -5 -11 -5z" />
    <glyph glyph-name="uniE672" unicode="&#xe672;" 
d="M296 876h32v-163h-32v163zM696 876h32v-163h-32v163zM379 811h269v-32h-269v32zM787 811v-32h165v-152h-880v152h168v32h-200v-902h944v902h-197zM72 -59v654h880v-654h-880z" />
    <glyph glyph-name="uniE673" unicode="&#xe673;" horiz-adv-x="1041" 
d="M520 116q-7 0 -11 5l-504 504q-12 11 -0.5 22.5t22.5 -0.5l493 -492l493 492q11 12 22.5 0.5t-0.5 -22.5l-504 -504q-4 -5 -11 -5z" />
    <glyph glyph-name="uniE674" unicode="&#xe674;" 
d="M476 -10q-79 0 -151 28q-6 3 -9 9t-0.5 12t8.5 9t12 0q67 -26 140 -26q107 0 197 52.5t142.5 143t52.5 197t-52.5 196.5t-142.5 142.5t-196.5 52.5t-197 -52.5t-143 -142.5t-52.5 -197q0 -125 73 -227q4 -5 3 -11.5t-6.5 -10.5t-12 -3t-10.5 6q-79 110 -79 246
q0 115 57 213t154.5 154.5t212.5 56.5t213 -56.5t154.5 -154.5t56.5 -213t-56.5 -212.5t-154.5 -154.5t-213 -57zM921 -93q-7 0 -11 5l-180 181q-11 12 0.5 23t22.5 0l179 -182q12 -11 0 -22q-4 -5 -11 -5z" />
    <glyph glyph-name="uniE675" unicode="&#xe675;" 
d="M512 858q-96 0 -184 -37.5t-151.5 -101t-101 -151.5t-37.5 -184t37.5 -184t101 -151.5t151.5 -101t184 -37.5q93 0 180 36t154 102q23 11 39 21q-45 98 -151 192q-61 -45 -196 75q-132 123 -92 187q-105 97 -206 132q-19 -35 -29 -86q0 -7 0.5 -19.5t11 -53t30 -81
t63.5 -98.5t104 -112q57 -53 115.5 -90.5t106 -53.5t78.5 -22.5t58 -7.5q-119 -89 -266 -89q-90 0 -171.5 35t-141 94.5t-94.5 141t-35 171.5t35 171.5t94.5 141t141 94.5t171.5 35t171.5 -35t141 -94.5t94.5 -141t35 -171.5q0 -7 4.5 -11.5t11.5 -4.5t11.5 4.5t4.5 11.5
q0 96 -37.5 184t-101 151.5t-151.5 101t-184 37.5zM250 672q102 -36 207 -133q8 9 14 20.5t10.5 29t-4.5 38t-33 38.5q-5 5 -13.5 12t-33.5 20.5t-48 18.5t-51 -4.5t-48 -39.5zM875 273q-20 22 -41.5 29.5t-38.5 1t-27.5 -13.5t-19.5 -16q107 -95 153 -193q20 16 29 36
t8.5 38t-6.5 36t-16 32.5t-19 26t-15.5 18t-6.5 5.5z" />
    <glyph glyph-name="uniE676" unicode="&#xe676;" 
d="M352 40q-7 0 -11 4l-327 328q-11 12 0 23t23 0l315 -317l637 630q11 11 22.5 -0.5t-0.5 -22.5l-648 -641q-5 -4 -11 -4z" />
    <glyph glyph-name="uniE677" unicode="&#xe677;" 
d="M512 -92q-97 0 -185 37.5t-152 101.5t-101.5 152t-37.5 185t37.5 185t101.5 152t152 101.5t185 37.5t185 -37.5t152 -101.5t101.5 -152t37.5 -185t-37.5 -185t-101.5 -152t-152 -101.5t-185 -37.5zM512 828q-90 0 -172.5 -35t-142 -94.5t-94.5 -142t-35 -172.5t35 -172.5
t94.5 -142t142 -94.5t172.5 -35t172.5 35t142 94.5t94.5 142t35 172.5t-35 172.5t-94.5 142t-142 94.5t-172.5 35z" />
    <glyph glyph-name="uniE678" unicode="&#xe678;" 
d="M377 89q-6 0 -10 4l-306 279q-12 11 -1 23t23 1l294 -269l564 548q11 11 22.5 -0.5t-0.5 -22.5l-574 -559q-5 -4 -12 -4z" />
    <glyph glyph-name="uniE679" unicode="&#xe679;" 
d="M940 368h-856q-7 0 -11.5 4.5t-4.5 11.5t4.5 11.5t11.5 4.5h856q7 0 11.5 -4.5t4.5 -11.5t-4.5 -11.5t-11.5 -4.5zM512 -60q-7 0 -11.5 4.5t-4.5 11.5v856q0 7 4.5 11.5t11.5 4.5t11.5 -4.5t4.5 -11.5v-856q0 -7 -4.5 -11.5t-11.5 -4.5z" />
    <glyph glyph-name="uniE67A" unicode="&#xe67a;" 
d="M940 368h-856q-7 0 -11.5 4.5t-4.5 11.5t4.5 11.5t11.5 4.5h856q7 0 11.5 -4.5t4.5 -11.5t-4.5 -11.5t-11.5 -4.5z" />
    <glyph glyph-name="uniE67B" unicode="&#xe67b;" 
d="M843 -93h-675q-33 0 -56.5 23.5t-23.5 56.5v794q0 33 23.5 56.5t56.5 23.5h531q6 0 11 -4.5t5 -11t-5 -11.5t-11 -5h-531q-20 0 -34 -14t-14 -34v-794q0 -20 14 -34t34 -14h675q20 0 34 14t14 34v474q0 7 4.5 11.5t11 4.5t11.5 -4.5t5 -11.5v-474q0 -33 -23.5 -56.5
t-56.5 -23.5zM288 152q-7 0 -11 5q-12 11 0 22l669 678q11 11 22.5 0t0.5 -23l-670 -677q-4 -5 -11 -5z" />
    <glyph glyph-name="uniE67C" unicode="&#xe67c;" 
d="M963 368h-902q-6 0 -11 4.5t-5 11.5t5 11.5t11 4.5h902q6 0 11 -4.5t5 -11.5t-5 -11.5t-11 -4.5zM963 613h-902q-6 0 -11 5t-5 11.5t5 11t11 4.5h902q6 0 11 -4.5t5 -11t-5 -11.5t-11 -5zM963 123h-902q-6 0 -11 4.5t-5 11t5 11.5t11 5h902q6 0 11 -5t5 -11.5t-5 -11
t-11 -4.5z" />
    <glyph glyph-name="uniE67D" unicode="&#xe67d;" 
d="M976 653h-928q-7 0 -11.5 5t-4.5 11.5t4.5 11t11.5 4.5h928q7 0 11.5 -4.5t4.5 -11t-4.5 -11.5t-11.5 -5zM747 -80h-494q-33 0 -56.5 23.5t-23.5 56.5v653q0 7 5 11.5t11.5 4.5t11 -4.5t4.5 -11.5v-653q0 -20 14 -34t34 -14h494q19 0 33.5 14t14.5 34v653q0 7 4.5 11.5
t11 4.5t11.5 -4.5t5 -11.5v-653q0 -33 -23.5 -56.5t-56.5 -23.5zM381.5 116q-6.5 0 -11.5 4.5t-5 11.5v325q0 7 5 11.5t11.5 4.5t11 -4.5t4.5 -11.5v-325q0 -7 -4.5 -11.5t-11 -4.5zM620 116q-7 0 -11.5 4.5t-4.5 11.5v325q0 7 4.5 11.5t11.5 4.5t11.5 -4.5t4.5 -11.5v-325
q0 -7 -4.5 -11.5t-11.5 -4.5zM623.5 746q-6.5 0 -11.5 5t-5 11v59q0 2 -4.5 4.5t-11.5 2.5h-182q-7 0 -11.5 -2.5t-4.5 -4.5v-59q0 -6 -5 -11t-11.5 -5t-11 5t-4.5 11v59q0 16 14 27.5t34 11.5h182q21 0 34.5 -11.5t13.5 -27.5v-59q0 -6 -4.5 -11t-11 -5z" />
    <glyph glyph-name="uniE67E" unicode="&#xe67e;" 
d="M833 -80h-656q-45 0 -76.5 32t-31.5 77v104q0 7 4.5 11.5t11 4.5t11.5 -4.5t5 -11.5v-104q0 -32 22.5 -54.5t53.5 -22.5h656q32 0 54.5 22.5t22.5 54.5v104q0 7 4.5 11.5t11.5 4.5t11.5 -4.5t4.5 -11.5v-104q0 -45 -32 -77t-77 -32zM510 144q-7 0 -11 5l-394 394
q-12 11 -0.5 22.5t22.5 -0.5l367 -366v643q0 7 4.5 11.5t11.5 4.5t11.5 -4.5t4.5 -11.5v-682q0 -11 -10 -15q-3 -1 -6 -1zM658 298q-7 0 -11 4q-12 12 -1 23l214 220q12 12 23 0q12 -11 1 -22l-214 -220q-5 -5 -12 -5z" />
    <glyph glyph-name="uniE67F" unicode="&#xe67f;" 
d="M833 -80h-656q-45 0 -76.5 32t-31.5 77v104q0 7 4.5 11.5t11 4.5t11.5 -4.5t5 -11.5v-104q0 -32 22.5 -54.5t53.5 -22.5h656q32 0 54.5 22.5t22.5 54.5v104q0 7 4.5 11.5t11.5 4.5t11.5 -4.5t4.5 -11.5v-104q0 -45 -32 -77t-77 -32zM478 144q-7 0 -11.5 4.5t-4.5 11.5
v682q0 11 10 15t17 -4l394 -394q12 -11 0.5 -22.5t-22.5 0.5l-367 366v-643q0 -7 -4.5 -11.5t-11.5 -4.5zM116.5 452q-6.5 0 -11.5 5q-12 11 0 22l214 220q11 12 22.5 0.5t-0.5 -22.5l-214 -220q-4 -5 -10.5 -5z" />
    <glyph glyph-name="uniE680" unicode="&#xe680;" 
d="M963 371q-8 0 -13 6q-231 305 -468 292q-68 -4 -135.5 -36.5t-112 -70.5t-85.5 -85.5t-54.5 -67.5t-19.5 -30q-3 -6 -9.5 -8t-12 1.5t-7.5 10t1 12.5q5 8 13 20t31 42.5t48 58t63.5 61.5t79 59t93 43t105.5 22q253 15 495 -305q10 -13 -3 -22q-4 -3 -9 -3zM963 371
q-8 0 -13 6q-231 305 -468 292q-68 -4 -135.5 -36.5t-112 -70.5t-85.5 -85.5t-54.5 -67.5t-19.5 -30q-3 -6 -9.5 -8t-12 1.5t-7.5 10t1 12.5q5 8 13 20t31 42.5t48 58t63.5 61.5t79 59t93 43t105.5 22q253 15 495 -305q10 -13 -3 -22q-4 -3 -9 -3zM503 67h-23
q-53 4 -105.5 22.5t-93 43t-79 58.5t-63.5 61.5t-48 58t-31 42.5t-13 20q-3 6 -1 12.5t7.5 10t12 1.5t9.5 -7q6 -11 19.5 -31t54.5 -67.5t85.5 -85.5t112 -70.5t135.5 -36.5q237 -13 468 292q10 13 22.5 3.5t2.5 -22.5q-231 -305 -472 -305zM503 67h-23q-53 4 -105.5 22.5
t-93 43t-79 58.5t-63.5 61.5t-48 58t-31 42.5t-13 20q-3 6 -1 12.5t7.5 10t12 1.5t9.5 -7q6 -11 19.5 -31t54.5 -67.5t85.5 -85.5t112 -70.5t135.5 -36.5q237 -13 468 292q10 13 22.5 3.5t2.5 -22.5q-231 -305 -472 -305zM512 225q-67 0 -114 47.5t-47 114t47 114t114 47.5
t114 -47.5t47 -114t-47 -114t-114 -47.5zM511.5 516q-53.5 0 -91 -38t-37.5 -91.5t37.5 -91.5t91 -38t91.5 38t38 91.5t-38 91.5t-91.5 38z" />
    <glyph glyph-name="uniE681" unicode="&#xe681;" 
d="M721 158h-418q-13 0 -22.5 9.5t-9.5 22.5t9.5 22.5t22.5 9.5h418q13 0 22.5 -9.5t9.5 -22.5t-9.5 -22.5t-22.5 -9.5zM721 402h-418q-13 0 -22.5 9.5t-9.5 22.5t9.5 22.5t22.5 9.5h418q13 0 22.5 -9.5t9.5 -22.5t-9.5 -22.5t-22.5 -9.5zM556 716h-110q-36 0 -61 21t-25 51
v40q0 13 9.5 22.5t23 9.5t22.5 -9.5t9 -22.5v-40q1 -1 3.5 -2.5t7.5 -3.5t11 -2h110q9 0 15 3t7 6v39q0 13 9 22.5t22.5 9.5t23 -9.5t9.5 -22.5v-40q0 -30 -25 -51t-61 -21zM805 -106h-586q-53 0 -90.5 37.5t-37.5 90.5v724q0 53 37.5 90.5t90.5 37.5h92q13 0 22.5 -9.5
t9.5 -22.5t-9.5 -22.5t-22.5 -9.5h-92q-26 0 -45 -19t-19 -45v-724q0 -27 19 -45.5t45 -18.5h586q26 0 45 18.5t19 45.5v724q0 26 -19 45t-45 19h-114q-13 0 -22.5 9.5t-9.5 22.5t9.5 22.5t22.5 9.5h114q53 0 90.5 -37.5t37.5 -90.5v-724q0 -53 -37.5 -90.5t-90.5 -37.5z
" />
    <glyph glyph-name="uniE682" unicode="&#xe682;" 
d="M805 874h-586q-53 0 -90.5 -37.5t-37.5 -90.5v-724q0 -53 37.5 -90.5t90.5 -37.5h586q53 0 90.5 37.5t37.5 90.5v724q0 53 -37.5 90.5t-90.5 37.5zM360 828q0 13 9.5 22.5t23 9.5t22.5 -9.5t9 -22.5v-40q1 -1 3.5 -2.5t7.5 -3.5t11 -2h110q9 0 15 3t7 6v39q0 13 9 22.5
t22.5 9.5t23 -9.5t9.5 -22.5v-40q0 -30 -25 -51t-61 -21h-110q-36 0 -61 21t-25 51v40zM721 158h-418q-13 0 -22.5 9.5t-9.5 22.5t9.5 22.5t22.5 9.5h418q13 0 22.5 -9.5t9.5 -22.5t-9.5 -22.5t-22.5 -9.5zM721 402h-418q-13 0 -22.5 9.5t-9.5 22.5t9.5 22.5t22.5 9.5h418
q13 0 22.5 -9.5t9.5 -22.5t-9.5 -22.5t-22.5 -9.5z" />
    <glyph glyph-name="uniE683" unicode="&#xe683;" 
d="M857 106h-690q-40 0 -68 28t-28 68v538q0 40 28 68t68 28h690q40 0 68 -28t28 -68v-538q0 -40 -28 -68t-68 -28zM167 772q-13 0 -22.5 -9.5t-9.5 -22.5v-538q0 -13 9.5 -22.5t22.5 -9.5h690q13 0 22.5 9.5t9.5 22.5v538q0 13 -9.5 22.5t-22.5 9.5h-690zM772 -78h-520
q-13 0 -22.5 9.5t-9.5 22.5t9.5 22.5t22.5 9.5h520q13 0 22.5 -9.5t9.5 -22.5t-9.5 -22.5t-22.5 -9.5zM426 -78q-13 0 -22.5 9.5t-9.5 22.5v184q0 13 9.5 22.5t22.5 9.5t22.5 -9.5t9.5 -22.5v-184q0 -13 -9.5 -22.5t-22.5 -9.5zM614 -78q-13 0 -22.5 9.5t-9.5 22.5v184
q0 13 9.5 22.5t22.5 9.5t22.5 -9.5t9.5 -22.5v-184q0 -13 -9.5 -22.5t-22.5 -9.5zM921 266h-818q-13 0 -22.5 9.5t-9.5 22.5t9.5 22.5t22.5 9.5h818q13 0 22.5 -9.5t9.5 -22.5t-9.5 -22.5t-22.5 -9.5zM576 439q-13 0 -22 9l-97 91l-60 -66q-9 -9 -22.5 -9.5t-23 8t-10.5 22
t8 23.5l83 90q10 10 23 10q12 1 23 -9l95 -90l100 120q9 10 22 11t23.5 -7.5t11.5 -21.5t-8 -24l-121 -146q-9 -10 -23 -11h-1h-1z" />
    <glyph glyph-name="uniE684" unicode="&#xe684;" 
d="M921 266h-818q-13 0 -22.5 9.5t-9.5 22.5v-96q0 -40 28 -68t68 -28h227v-120h-142q-13 0 -22.5 -9.5t-9.5 -22.5t9.5 -22.5t22.5 -9.5h174h188h158q13 0 22.5 9.5t9.5 22.5t-9.5 22.5t-22.5 9.5h-126v120h211q40 0 68 28t28 68v96q0 -13 -9.5 -22.5t-22.5 -9.5zM857 836
h-690q-40 0 -68 -28t-28 -68v-442q0 13 9.5 22.5t22.5 9.5h818q13 0 22.5 -9.5t9.5 -22.5v442q0 40 -28 68t-68 28zM723 596l-122 -146q-9 -10 -23 -11h-2q-13 0 -22 9l-97 91l-61 -66q-9 -9 -22 -9.5t-22.5 8t-10.5 22t8 23.5l83 90q10 10 23 10q12 1 23 -9l95 -90l100 120
q9 10 22 11t23.5 -7.5t11.5 -21.5t-7 -24z" />
    <glyph glyph-name="uniE685" unicode="&#xe685;" 
d="M98 439q-5 0 -9 1q-12 4 -19 15.5t-3 23.5l88 330q3 11 11.5 17.5t19.5 6.5h660q11 0 19.5 -6.5t11.5 -16.5l89 -330q3 -13 -3.5 -24.5t-19.5 -15t-24.5 3t-14.5 19.5l-82 306h-611l-82 -306q-3 -11 -12 -17.5t-19 -6.5zM109 384zM98 456zM86 463zM229.5 272
q-69.5 0 -119 49.5t-49.5 118.5q0 20 7 44q3 13 14.5 19.5t24.5 3t19.5 -15t3.5 -23.5q-5 -16 -5 -28q0 -43 30.5 -73.5t73.5 -30.5t73.5 30.5t30.5 73.5q0 13 9.5 22.5t23 9.5t22.5 -9.5t9 -22.5q0 -69 -49 -118.5t-118.5 -49.5zM516.5 265q-75.5 0 -129.5 53.5t-54 129.5
v172q0 13 9.5 22.5t23 9.5t22.5 -9.5t9 -22.5v-172q0 -50 35 -84.5t84 -34.5t84 34.5t35 84.5v172q0 13 9.5 22.5t23 9.5t22.5 -9.5t9 -22.5v-172q0 -76 -53.5 -129.5t-129 -53.5zM803.5 272q-69.5 0 -119 49.5t-49.5 118.5q0 13 9.5 22.5t23 9.5t22.5 -9.5t9 -22.5
q0 -43 30.5 -73.5t73.5 -30.5t73.5 30.5t30.5 73.5q0 12 -4 28q-3 12 3.5 23.5t19 15.5t24 -3t15.5 -20q6 -24 6 -44q0 -69 -49 -118.5t-118.5 -49.5zM831 -80h-629q-40 0 -68 28t-28 68v212q0 13 9 22.5t22.5 9.5t23 -9.5t9.5 -22.5v-212q0 -13 9 -22.5t23 -9.5h629
q13 0 22.5 9.5t9.5 22.5v212q0 13 9.5 22.5t22.5 9.5t22.5 -9.5t9.5 -22.5v-212q0 -40 -28 -68t-68 -28z" />
    <glyph glyph-name="uniE686" unicode="&#xe686;" 
d="M831 -80h-629q-40 0 -68 28t-28 68v212q0 13 9 22.5t22.5 9.5t23 -9.5t9.5 -22.5v-212q0 -13 9 -22.5t23 -9.5h629q13 0 22.5 9.5t9.5 22.5v212q0 13 9.5 22.5t22.5 9.5t22.5 -9.5t9.5 -22.5v-212q0 -40 -28 -68t-68 -28zM966 476v2v1l-1 3v1v1q0 1 -1 2l-87 324
q-3 10 -11.5 16.5t-19.5 6.5h-660q-11 0 -19.5 -6.5t-11.5 -17.5l-87 -323v-2v-1q0 -1 -1 -1v-3v-1v-2q-6 -23 -6 -36q0 -69 49.5 -118.5t118.5 -49.5q42 0 78 19t59 52q26 -36 65.5 -57t85 -21t85 21t64.5 57q24 -33 60 -52t77 -19q70 0 119 49.5t49 118.5q0 13 -5 36z" />
    <glyph glyph-name="uniE687" unicode="&#xe687;" 
d="M512 -122q-103 0 -196.5 40t-161.5 108t-108 161.5t-40 196.5t40 196.5t108 161.5t161.5 108t196.5 40t196.5 -40t161.5 -108t108 -161.5t40 -196.5t-40 -196.5t-108 -161.5t-161.5 -108t-196.5 -40zM512 826q-90 0 -171.5 -35t-141 -94.5t-94.5 -141t-35 -171.5
t35 -171.5t94.5 -141t141 -94.5t171.5 -35t171.5 35t141 94.5t94.5 141t35 171.5t-35 171.5t-94.5 141t-141 94.5t-171.5 35zM512 275q-77 0 -131.5 55t-54.5 132t54.5 131.5t131.5 54.5t131.5 -55t54.5 -131.5t-54.5 -131.5t-131.5 -55zM512 584q-50 0 -86 -36t-36 -86.5
t36 -86.5t86 -36t86 36t36 86.5t-36 86.5t-86 36zM775 3q-24 89 -97.5 145.5t-165.5 56.5t-165.5 -56.5t-97.5 -144.5l-61 16q29 110 119.5 179.5t204.5 69.5t204.5 -69.5t120.5 -179.5z" />
    <glyph glyph-name="uniE688" unicode="&#xe688;" 
d="M937 110q13 21 25 44q1 3 3 7t3 5q9 18 16 37l6 16t11 36q4 16 4 18q4 16 7 38q0 1 1 7t2 10q3 30 3 56q0 103 -40 196.5t-108 161.5t-161.5 108t-196.5 40t-196.5 -40t-161.5 -108t-108 -161.5t-40 -196.5q0 -26 3 -56q1 -4 2 -10t1 -7q3 -23 7 -38q0 -3 4 -18
q6 -20 11 -36q3 -7 6 -16q7 -18 16 -37q1 -1 2.5 -5t3.5 -7q11 -23 25 -44l1 -1q69 -106 181 -168.5t243 -62.5t243 62.5t181 168.5zM512 648q77 0 131.5 -55t54.5 -131.5t-54.5 -131.5t-131.5 -55t-131.5 55t-54.5 131.5t54.5 131.5t131.5 55zM204 67q40 91 123.5 146.5
t184 55.5t184.5 -55.5t124 -146.5q-61 -59 -140.5 -92t-167.5 -33t-167.5 33t-140.5 92z" />
    <glyph glyph-name="uniE689" unicode="&#xe689;" 
d="M512 384zM0 384q0 139 68.5 257t186.5 186.5t257 68.5t257 -68.5t186.5 -186.5t68.5 -257t-68.5 -257t-186.5 -186.5t-257 -68.5t-257 68.5t-186.5 186.5t-68.5 257zM512 453q-34 0 -57.5 -25t-23.5 -60.5t23.5 -60t57.5 -24.5t57.5 24.5t23.5 60.5q0 34 -23.5 59.5
t-57.5 25.5zM716 522h-89q-13 4 -16 14q-3 16 -8 28q-6 14 -10 14h-1h-159q-6 -2 -11 -15q-6 -13 -9 -28q-2 -6 -16 -15h-89q-13 0 -22.5 -9.5t-9.5 -23.5v-267q0 -13 9.5 -23t22.5 -10h409q13 0 22.5 9.5t9.5 23.5v268q-1 14 -10.5 24t-22.5 10zM512 260q-42 0 -71 31
t-29 75.5t29 75.5t71 31t71 -31t29 -75.5t-29 -75.5t-71 -31z" />
  </font>
</defs>
</svg>
