<?xml version="1.0" standalone="no"?>
<!DOCTYPE svg PUBLIC "-//W3C//DTD SVG 1.1//EN" "http://www.w3.org/Graphics/SVG/1.1/DTD/svg11.dtd" >
<svg xmlns="http://www.w3.org/2000/svg">
<metadata>
Created by FontForge 20120731 at Wed Jun 29 09:27:11 2016
 By admin
</metadata>
<defs>
<font id="iconfont" horiz-adv-x="1024" >
  <font-face 
    font-family="iconfont"
    font-weight="500"
    font-stretch="normal"
    units-per-em="1024"
    panose-1="2 0 6 3 0 0 0 0 0 0"
    ascent="896"
    descent="-128"
    x-height="792"
    bbox="-1 -129.714 1031.47 896"
    underline-thickness="50"
    underline-position="-100"
    unicode-range="U+0078-F611"
  />
<missing-glyph horiz-adv-x="374" 
d="M34 0v682h272v-682h-272zM68 34h204v614h-204v-614z" />
    <glyph glyph-name=".notdef" horiz-adv-x="374" 
d="M34 0v682h272v-682h-272zM68 34h204v614h-204v-614z" />
    <glyph glyph-name=".null" horiz-adv-x="0" 
 />
    <glyph glyph-name="nonmarkingreturn" horiz-adv-x="341" 
 />
    <glyph glyph-name="x" unicode="x" horiz-adv-x="1001" 
d="M281 543q-27 -1 -53 -1h-83q-18 0 -36.5 -6t-32.5 -18.5t-23 -32t-9 -45.5v-76h912v41q0 16 -0.5 30t-0.5 18q0 13 -5 29t-17 29.5t-31.5 22.5t-49.5 9h-133v-97h-438v97zM955 310v-52q0 -23 0.5 -52t0.5 -58t-10.5 -47.5t-26 -30t-33 -16t-31.5 -4.5q-14 -1 -29.5 -0.5
t-29.5 0.5h-32l-45 128h-439l-44 -128h-29h-34q-20 0 -45 1q-25 0 -41 9.5t-25.5 23t-13.5 29.5t-4 30v167h911zM163 247q-12 0 -21 -8.5t-9 -21.5t9 -21.5t21 -8.5q13 0 22 8.5t9 21.5t-9 21.5t-22 8.5zM316 123q-8 -26 -14 -48q-5 -19 -10.5 -37t-7.5 -25t-3 -15t1 -14.5
t9.5 -10.5t21.5 -4h37h67h81h80h64h36q23 0 34 12t2 38q-5 13 -9.5 30.5t-9.5 34.5q-5 19 -11 39h-368zM336 498v228q0 11 2.5 23t10 21.5t20.5 15.5t34 6h188q31 0 51.5 -14.5t20.5 -52.5v-227h-327z" />
    <glyph glyph-name="uniF600" unicode="&#xf600;" 
d="M512 832q-185 0 -316.5 -131.5t-131.5 -316.5t131.5 -316.5t316.5 -131.5t316.5 131.5t131.5 316.5t-131.5 316.5t-316.5 131.5zM765 96q0 22 -21 30q-2 1 -15 6.5t-24 9.5t-27 9.5t-34 10t-36 7.5v14q46 45 74 122.5t28 146.5q0 96 -47.5 148t-134.5 52
q-89 0 -140.5 -53t-51.5 -147q0 -50 19 -130t61 -131v-17q-92 -23 -142 -40q-11 -4 -16 -14.5t-2 -21.5q-61 53 -95 127.5t-34 158.5q0 104 51.5 192.5t140 140t193 51.5t193 -51.5t140 -140t51.5 -192.5q0 -85 -35 -160t-96 -128z" />
    <glyph glyph-name="uniF601" unicode="&#xf601;" 
d="M512 832q-185 0 -316.5 -131.5t-131.5 -316.5t131.5 -316.5t316.5 -131.5t316.5 131.5t131.5 316.5t-131.5 316.5t-316.5 131.5zM289 72q7 0 10 1q103 37 158 41q12 1 20.5 10t8.5 22v59q0 15 -11 24q-37 32 -54.5 94.5t-17.5 128.5q0 136 125 136q118 0 118 -136
q0 -66 -26 -132.5t-64 -96.5q-12 -10 -12 -25v-55q0 -13 8.5 -22t20.5 -10q50 -6 148 -45h3l2 -1q-97 -65 -214 -65q-122 0 -223 72zM765 95q0 23 -20 31q-80 31 -137 43v14q48 45 75 121.5t27 147.5q0 96 -47.5 148t-134.5 52q-89 0 -139 -53t-50 -147q0 -23 2.5 -49.5
t10 -66.5t25.5 -79t45 -66v-17q-61 -11 -145 -41q-11 -3 -16.5 -13.5t-3.5 -21.5q-60 53 -94.5 127.5t-34.5 158.5q0 104 51.5 192.5t140 140t192.5 51.5t192.5 -51.5t140 -140t51.5 -192.5q0 -85 -35 -160t-96 -129z" />
    <glyph glyph-name="uniF602" unicode="&#xf602;" 
d="M353 64q-27 0 -45.5 -18.5t-18.5 -45.5t18.5 -45.5t45 -18.5t45.5 18.5t19 45.5t-19 45.5t-45 18.5zM801 64q-27 0 -45.5 -18.5t-18.5 -45.5t18.5 -45.5t45 -18.5t45.5 18.5t19 45.5t-19 45.5t-45 18.5zM864 96h-520q-34 0 -61 24t-31 59l-54 382l-31 179q-2 11 -11 19.5
t-19 8.5h-41q-13 0 -22.5 9.5t-9.5 22.5t9.5 22.5t22.5 9.5h41q35 0 62 -24t31 -59l31 -178l54 -384q2 -11 10.5 -19t18.5 -8h520q13 0 22.5 -9.5t9.5 -22.5t-9.5 -22.5t-22.5 -9.5zM384 224q-12 0 -21.5 8.5t-10.5 21.5t8 23t22 11l434 32q12 0 21 8t10 19l51 288
q2 18 -9 30q-6 7 -15 7h-554q-13 0 -22.5 9.5t-9.5 22.5t9.5 22.5t22.5 9.5h554q38 0 63 -29q30 -33 24 -81l-51 -289q-4 -33 -30.5 -57t-61.5 -24l-431 -32h-3z" />
    <glyph glyph-name="uniF603" unicode="&#xf603;" 
d="M980 491l-406 321q-26 21 -62 21t-62 -21l-406 -321q-10 -8 -11.5 -21t6.5 -23.5t21 -12t23 6.5l13 11v-388q0 -40 34.5 -68t74.5 -28h640q37 0 60 26.5t23 69.5v386l12 -9q8 -7 20 -7q15 0 25 12q8 11 6.5 24t-11.5 21zM480 32v177q0 14 32 14t32 -14v-177h-64zM864 64
q0 -32 -19 -32h-236h-1v1v176q0 31 -25 54.5t-71 23.5t-71 -23.5t-25 -54.5v-176v-1h1h-212q-15 0 -30 10.5t-15 21.5v438l329 260q9 7 22.5 7t22.5 -7l330 -261v-437z" />
    <glyph glyph-name="uniF604" unicode="&#xf604;" 
d="M353 64q-26 0 -45 -18.5t-19 -45t19 -45.5t45.5 -19t45 19t18.5 45.5t-18.5 45t-45.5 18.5zM801 64q-26 0 -45 -18.5t-19 -45t19 -45.5t45.5 -19t45 19t18.5 45.5t-18.5 45t-45.5 18.5zM937 708q-25 28 -63 28h-641l-2 13q-5 35 -32 59t-62 24h-40q-13 0 -22.5 -9.5
t-9.5 -22.5t9.5 -22.5t22.5 -9.5h40q11 0 20 -8.5t10 -19.5l31 -179l54 -382q5 -35 31.5 -59t61.5 -24h520q13 0 22.5 9.5t9.5 22.5t-9.5 22.5t-22.5 9.5h-520q-10 0 -19 8t-10 19l-5 38l507 31q35 0 61.5 24t30.5 58l51 288q6 48 -24 82z" />
    <glyph glyph-name="uniF605" unicode="&#xf605;" 
d="M982 492l-409 320q-26 21 -62 21t-62 -21l-406 -321q-10 -8 -11.5 -21t6.5 -23.5t21 -12t24 6.5l13 11v-388q0 -40 34 -68t74 -28h640q38 0 61 26.5t23 69.5v389l14 -12q9 -7 20 -7q16 0 25 13q9 10 7 23t-12 22zM608 99v-67h-192v179q0 31 25 54t71 23t71 -23t25 -54
v-112z" />
    <glyph glyph-name="uniF606" unicode="&#xf606;" 
d="M704 800h-576q-40 0 -68 -28t-28 -68v-416q0 -40 28 -68t68 -28l1 -161q0 -22 21 -30q5 -2 11 -2q14 0 24 12l166 181h353q40 0 68 28t28 68v416q0 40 -28 68t-68 28zM637 462q-29 -50 -93 -80.5t-126 -30.5q-63 0 -127 31t-93 81q-7 11 -3.5 24t15 19.5t24 3t19.5 -14.5
q20 -35 69.5 -57.5t95.5 -22.5q45 0 94 22t70 57q7 12 19.5 15t24 -3.5t15 -19.5t-3.5 -24zM863 -65q-13 0 -22 10l-118 119h-147q-13 0 -22.5 9.5t-9.5 22.5t9.5 22.5t22.5 9.5h160q14 0 23 -10l73 -73v50v4q1 12 10 20.5t22 8.5h32q14 0 23 9t9 23v352q0 13 -9.5 22.5
t-22.5 9.5t-22.5 9.5t-9.5 22.5t9.5 22.5t22.5 9.5q40 0 68 -28.5t28 -67.5v-352q0 -40 -28 -68t-68 -28l-1 -97q0 -21 -19 -29q-6 -3 -13 -3z" />
    <glyph glyph-name="uniF607" unicode="&#xf607;" 
d="M637 462q7 11 3.5 24t-15 19.5t-24 3.5t-19.5 -15q-19 -33 -67.5 -56t-97 -23t-97 23.5t-67.5 56.5q-7 11 -19.5 14.5t-24 -3t-15 -19.5t3.5 -24q29 -52 93.5 -82t126.5 -30q60 0 124.5 30t94.5 81zM704 192q40 0 68 28t28 68v416q0 40 -28 68t-68 28h-576q-40 0 -68 -28
t-28 -68v-416q0 -40 28 -68t68 -28v-160q0 -22 20 -30q6 -2 12 -2q14 0 23 10l171 182h350zM193 220v2v2q0 13 -9 22.5t-23 9.5h-33q-13 0 -22.5 9.5t-9.5 22.5v416q0 13 9.5 22.5t22.5 9.5h576q13 0 22.5 -9.5t9.5 -22.5v-416q0 -13 -9.5 -22.5t-22.5 -9.5h-364h-1
q-3 0 -9 -2h-1q-1 0 -2 -1q-2 -1 -7 -5h-1l-2 -2h-1l-124 -133zM896 608q-13 0 -22.5 -9.5t-9.5 -23t9.5 -22.5t23 -9t22.5 -9.5t9 -22.5v-352q0 -14 -9 -23t-23 -9h-32q-13 0 -22.5 -9.5t-9.5 -22.5v-1v0v-50l-73 73q-9 10 -23 10h-160q-13 0 -22.5 -9.5t-9.5 -22.5
t9.5 -22.5t22.5 -9.5h147l118 -119q9 -10 23 -10q6 0 12 3q19 8 20 29v97q40 0 68 28t28 68v352q0 39 -28 67.5t-68 28.5z" />
    <glyph glyph-name="uniF608" unicode="&#xf608;" 
d="M400 838h-226q-34 0 -58 -24t-24 -58v-227q0 -34 24 -58t58 -24h226q35 0 59 24t24 58v227q0 34 -24 58t-59 24zM423 556q0 -20 -14.5 -34.5t-34.5 -14.5h-173q-21 0 -35.5 14.5t-14.5 34.5v173q0 21 14.5 35t35.5 14h173q20 0 34.5 -14t14.5 -35v-173zM400 365h-226
q-34 0 -58 -24.5t-24 -58.5v-226q0 -34 24 -58t58 -24h226q35 0 59 24t24 58v226q0 34 -24 58.5t-59 24.5zM423 83q0 -21 -14.5 -35.5t-34.5 -14.5h-173q-21 0 -35.5 14.5t-14.5 35.5v173q0 20 14.5 34.5t35.5 14.5h173q20 0 34.5 -14.5t14.5 -34.5v-173zM853 838h-226
q-34 0 -58 -24t-24 -58v-227q0 -34 24 -58t58 -24h226q35 0 59 24t24 58v227q0 34 -24 58t-59 24zM876 556q0 -20 -14.5 -34.5t-34.5 -14.5h-173q-21 0 -35.5 14.5t-14.5 34.5v173q0 21 14.5 35t35.5 14h173q20 0 34.5 -14t14.5 -35v-173zM1000 -12l-70 70l-5 5
q31 48 31 106q0 81 -57 138.5t-138 57.5t-138.5 -57.5t-57.5 -138.5t57.5 -138t138.5 -57q58 0 106 31l5 -5l70 -70q12 -12 29 -12t29 12t12 29t-12 29zM761 36q-55 0 -94 39t-39 94t39 94t94 39t94 -39t39 -94t-39 -94t-94 -39z" />
    <glyph glyph-name="uniF609" unicode="&#xf609;" 
d="M400 838h-226q-34 0 -58 -24t-24 -58v-227q0 -34 24 -58t58 -24h226q35 0 59 24t24 58v227q0 34 -24 58t-59 24zM400 365h-226q-34 0 -58 -24.5t-24 -58.5v-226q0 -34 24 -58t58 -24h226q35 0 59 24t24 58v226q0 34 -24 58.5t-59 24.5zM853 838h-226q-34 0 -58 -24
t-24 -58v-227q0 -34 24 -58t58 -24h226q35 0 59 24t24 58v227q0 34 -24 58t-59 24zM1000 -12l-70 70l-5 5q31 48 31 106q0 81 -57 138.5t-138 57.5t-138.5 -57.5t-57.5 -138.5t57.5 -138t138.5 -57q58 0 106 31l5 -5l70 -70q12 -12 29 -12t29 12t12 29t-12 29zM761 36
q-55 0 -94 39t-39 94t39 94t94 39t94 -39t39 -94t-39 -94t-94 -39z" />
    <glyph glyph-name="uniF60A" unicode="&#xf60a;" 
d="M884 828h-89v-71q0 -20 -16 -34.5t-39.5 -14.5t-39.5 14.5t-16 34.5v71h-344v-71q0 -20 -16.5 -34.5t-39.5 -14.5t-39 14.5t-16 34.5v71h-89q-45 0 -76.5 -28t-31.5 -67v-766q0 -39 31.5 -67t76.5 -28h744q44 0 76 28t32 67v766q0 39 -31.5 67t-76.5 28zM922 -19
q0 -12 -11.5 -21t-26.5 -9h-744q-15 0 -26.5 9t-11.5 21v578h820v-578zM285 727q11 0 19 6t8 14v129q0 8 -8 14t-19 6t-18.5 -6t-7.5 -14v-129q0 -8 7.5 -14t18.5 -6zM739 727q11 0 18.5 6t7.5 14v129q0 8 -7.5 14t-18.5 6t-19 -6t-8 -14v-129q0 -8 8 -14t19 -6zM758 386
l-262 -302q-11 -12 -25.5 -12t-25.5 12l-147 169q-10 13 -10 30t10.5 29t25 12t25.5 -12l122 -141l236 273q10 12 25 12t25.5 -12t10.5 -29t-10 -29z" />
    <glyph glyph-name="uniF60B" unicode="&#xf60b;" 
d="M289 749q11 0 19 5t8 11v99q0 6 -8 10.5t-18.5 4.5t-18.5 -4.5t-8 -10.5v-99q0 -6 8 -11t18 -5v0zM733 749q11 0 19 5t8 11v99q0 6 -8 10.5t-18.5 4.5t-18.5 -4.5t-8 -10.5v-99q0 -6 8 -11t18 -5zM752 380l-256 -296q-11 -12 -25.5 -12t-24.5 12l-144 166
q-10 12 -10 28.5t10.5 28.5t24.5 12t25 -12l119 -137l231 267q11 11 25.5 11t24.5 -11.5t10 -28.5t-10 -28zM147 813q-44 0 -75 -27.5t-31 -65.5v-751q0 -38 31 -65.5t75 -27.5h729q43 0 74.5 27.5t31.5 65.5v751q0 38 -31.5 65.5t-74.5 27.5v0h-729zM913 -16
q0 -13 -11 -21.5t-26 -8.5h-729q-15 0 -26 8.5t-11 21.5v566h803v-566zM913 710v-100h-803v100q0 22 11 30.5t24 8.5h733q19 0 27 -12.5t8 -26.5z" />
    <glyph glyph-name="uniF60C" unicode="&#xf60c;" horiz-adv-x="1032" 
d="M1011 490l-140 121v189q-20 25 -41 33.5t-36 3t-27 -14.5t-18 -18l-6 -9v-70l-147 127q-24 25 -50 33.5t-46.5 4t-37 -12.5t-25.5 -16l-9 -9q-282 -245 -377 -326q-31 -26 -43 -50t-8 -39.5t14 -27.5t18.5 -17.5t9.5 -5.5l103 -50l1 -175l-87 -80q-10 -14 -16 -29t-7 -28
t0 -25.5t4.5 -23t7.5 -19.5t9 -16t9 -12t6 -8l3 -2q31 -31 65 -40.5t58.5 -3.5t48 21.5t31.5 23.5t12 13h535q20 3 33 20t16.5 29.5t3.5 15.5l4 331l123 58q15 14 21.5 30t4.5 28.5t-6 23t-9 16.5zM787 780h44v-131l-44 45v86zM232 -54q-2 -3 -6 -6.5t-16 -11t-24.5 -9.5
t-30.5 4t-35 23l-5 5q-3 3 -9 14t-8 22t3 27.5t19 31.5l244 244q0 5 -0.5 12.5t1 28.5t6.5 40.5t17.5 43t31 39.5t50.5 26.5t73 8.5l4 -37l-72 -68l90 -95l82 75l36 -8q1 -8 0.5 -21.5t-9.5 -46.5t-28 -56.5t-63.5 -40t-107.5 -9.5zM955 414l-124 -55l-9 -323
q0 -17 -4.5 -30t-10 -19t-11.5 -9.5t-10 -3.5l-3 -1h-441l150 151q63 -1 110 13.5t71.5 38t39.5 52.5t18 57.5t1.5 53t-4.5 39.5l-3 14l-95 12l-61 -56l-31 34l59 56l-11 103q-202 21 -262 -120q-23 -55 -20 -108l-108 -107l2 169l-97 43q-15 7 -21.5 16.5t-4.5 18.5
t6.5 17.5t8.5 13.5t5 5l349 311q20 19 41.5 26.5t38 4t29.5 -9.5t21 -12l7 -6l374 -338q12 -9 16.5 -17t2.5 -14t-6.5 -10.5t-8.5 -6.5z" />
    <glyph glyph-name="uniF60D" unicode="&#xf60d;" 
d="M947 640h-153q25 34 25 77q0 53 -37.5 90.5t-90.5 37.5q-82 0 -160 -90q-26 -30 -45 -63q-18 32 -44 63q-79 90 -160 90q-53 0 -90.5 -37.5t-37.5 -90.5q0 -43 25 -77h-153q-11 0 -18.5 -7.5t-7.5 -18.5v-153q0 -11 7.5 -18.5t18.5 -7.5h25v-486q0 -32 22.5 -54.5
t54.5 -22.5h717q32 0 54.5 22.5t22.5 54.5v486h25q11 0 18.5 7.5t7.5 18.5v153q0 11 -7.5 18.5t-18.5 7.5zM570 721q63 73 121 73q32 0 54.5 -22.5t22.5 -54.5t-22.5 -54.5t-54.5 -22.5h-173q16 40 52 81zM563 -77h-153v666h153v-666zM205 717q0 32 22.5 54.5t54.5 22.5
q58 0 121 -73q36 -41 52 -81h-173q-32 0 -54.5 22.5t-22.5 54.5zM51 589h307v-103h-307v103zM102 -51v486h256v-512h-230q-11 0 -18.5 7.5t-7.5 18.5zM870 -51q0 -11 -7.5 -18.5t-17.5 -7.5h-231v512h256v-486zM922 486h-308v103h308v-103z" />
    <glyph glyph-name="uniF60E" unicode="&#xf60e;" horiz-adv-x="1038" 
d="M1002 483l-138 119v187q-20 25 -41 33.5t-35.5 3t-26.5 -14.5t-18 -18l-6 -9v-69l-145 126q-24 24 -50 33t-46 4.5t-36.5 -12.5t-25.5 -16l-9 -9q-279 -243 -373 -323q-30 -26 -41.5 -50t-8.5 -38.5t14 -27.5t17 -16.5t10 -5.5l102 -50l1 -173l-86 -79q-17 -25 -21.5 -51
t1 -45t13.5 -34t16 -23l7 -8q31 -31 64 -41t58.5 -2.5t46.5 20.5t32.5 24t11.5 12h529q20 3 33 20.5t16 29.5t3 15l4 327l122 58q15 13 21 29t4.5 28.5t-5.5 23t-9 16.5zM781 769h43v-129l-43 44v85zM231 -56q-2 -2 -5.5 -6t-15.5 -11t-24.5 -9.5t-30.5 3.5t-35 23
q-2 2 -5 5.5t-8.5 14t-7.5 21.5t3 27t18 31l242 242q0 4 -0.5 11.5t1 28.5t6.5 40.5t17.5 42.5t30.5 39t49.5 26.5t72.5 8.5l4 -37l-72 -67l90 -94l81 74l36 -8v-21q0 -13 -9.5 -46t-28 -56.5t-62.5 -39.5t-107 -9zM947 408z" />
    <glyph glyph-name="uniF60F" unicode="&#xf60f;" 
d="M980 670h-157q26 35 26 79q0 54 -38 92t-92 38q-84 0 -164 -92q-27 -30 -46 -64q-18 33 -45 64q-80 92 -164 92q-54 0 -92.5 -38t-38.5 -92q0 -44 27 -79h-157q-11 0 -19 -7.5t-8 -18.5v-157q0 -11 8 -18.5t19 -7.5h26v-497q0 -32 23 -55t55 -23h732q33 0 56 23t23 55
v497h26q11 0 18.5 7.5t7.5 18.5v157q0 11 -7.5 18.5t-18.5 7.5zM594 753q65 74 125 74q32 0 55 -23t23 -55.5t-23 -55.5t-55 -23h-177q16 41 52 83zM588 -62h-157v680h157v-680zM222 749q0 32 23 55t55 23q60 0 124 -74q37 -42 53 -83h-177q-32 0 -55 23t-23 56zM431 397
h-367v63h367v-63zM954 397h-367v63h367v-63z" />
    <glyph glyph-name="uniF610" unicode="&#xf610;" horiz-adv-x="1033" 
d="M3 463q0 -40 27 -70.5t68 -40.5v-376h-63q-14 0 -23 -8.5t-9 -20.5t9 -20.5t23 -8.5h951q13 0 22 8.5t9 20.5t-9 20.5t-22 8.5h-64v376q42 10 68.5 40.5t26.5 70.5v29h-1014v-29zM637 348q53 0 90 34t37 81q0 -40 26.5 -70.5t68.5 -40.5v-376h-476v372q53 0 90 34t37 81
q0 -47 37 -81t90 -34v0zM352 352v-376h-191v376q42 10 69 40.5t27 70.5q0 -40 26.5 -70.5t68.5 -40.5v0zM891 750h-761l-127 -230h1014zM271 686l-64 -115q-4 -8 -14 -8q-4 0 -7 2q-6 3 -8 8.5t1 10.5l63 115q8 12 22 6q6 -2 8 -8t-1 -11v0zM398 686l-64 -115q-4 -8 -14 -8
q-4 0 -7 2q-6 3 -8 8.5t1 10.5l63 115q7 13 21 6q6 -2 8 -8t0 -11v0zM526 578q0 -6 -4.5 -10.5t-11 -4.5t-11.5 4.5t-5 10.5v114q0 6 5 10.5t11.5 4.5t11 -4.5t4.5 -10.5v-114zM708 565q-4 -2 -8 -2q-9 0 -13 8l-70 114q-3 6 -1 11.5t7 8.5q14 7 22 -6l69 -114q8 -13 -6 -20
v0zM834 565q-3 -2 -7 -2q-10 0 -14 8l-63 115q-3 5 -1 11t8 8q14 7 21 -6l63 -115q3 -5 1 -10.5t-8 -8.5v0zM272 143v66q-15 9 -15 25q0 12 9 20t22 8t22.5 -8t9.5 -20q0 -16 -16 -25v-66q16 -8 16 -24q0 -12 -9.5 -20.5t-22.5 -8.5t-22 8.5t-9 20.5q0 16 15 24v0zM130 807
q0 12 9 20.5t22 8.5h698q13 0 22.5 -8.5t9.5 -20.5t-9.5 -20.5t-22.5 -8.5h-698q-13 0 -22 8.5t-9 20.5v0zM559 195l-23 20l90 81l22 -20zM559 114l-23 20l180 162l22 -20zM716 215l22 -20l-90 -81l-22 20zM716 215z" />
    <glyph glyph-name="uniF611" unicode="&#xf611;" horiz-adv-x="1033" 
d="M891 750h-761l-127 -258h1014zM271 686l-64 -115q-4 -8 -14 -8q-4 0 -7 2q-6 3 -8 8.5t1 10.5l63 115q8 12 22 6q6 -2 8 -8t-1 -11v0zM398 686l-64 -115q-4 -8 -14 -8q-4 0 -7 2q-6 3 -8 8.5t1 10.5l63 115q7 13 21 6q6 -2 8 -8t0 -11v0zM526 578q0 -6 -4.5 -10.5
t-11 -4.5t-11.5 4.5t-5 10.5v114q0 6 5 10.5t11.5 4.5t11 -4.5t4.5 -10.5v-114zM708 565q-4 -2 -8 -2q-9 0 -13 8l-70 114q-3 6 -1 11.5t7 8.5q14 7 22 -6l69 -114q8 -13 -6 -20v0zM834 565q-3 -2 -7 -2q-10 0 -14 8l-63 115q-3 5 -1 11t8 8q14 7 21 -6l63 -115
q3 -5 1 -10.5t-8 -8.5v0zM130 836h761v-86h-761v86zM3 463q0 -40 27 -70.5t68 -40.5v-376h-63q-14 0 -23 -8.5t-9 -20.5t9 -20.5t23 -8.5h951q13 0 22 8.5t9 20.5t-9 20.5t-22 8.5h-64v376q42 10 68.5 40.5t26.5 70.5v29h-1014v-29zM637 348q53 0 90 34t37 81
q0 -40 26.5 -70.5t68.5 -40.5v-376h-476v372q53 0 90 34t37 81q0 -47 37 -81t90 -34v0zM352 352v-376h-191v376q42 10 69 40.5t27 70.5q0 -40 26.5 -70.5t68.5 -40.5v0zM272 143v66q-15 9 -15 25q0 12 9 20t22 8t22.5 -8t9.5 -20q0 -16 -16 -25v-66q16 -8 16 -24
q0 -12 -9.5 -20.5t-22.5 -8.5t-22 8.5t-9 20.5q0 16 15 24v0zM559 195l-23 20l90 81l22 -20zM559 114l-23 20l180 162l22 -20zM716 215l22 -20l-90 -81l-22 20zM716 215z" />
  </font>
</defs>
</svg>
